<?xml version="1.0" encoding="UTF-8"?>
<svg version="1.1" xmlns="http://www.w3.org/2000/svg" width="2075" height="529">
<path d="M0 0 C93.06 0 186.12 0 282 0 C282 29.37 282 58.74 282 89 C215.01 89 148.02 89 79 89 C79.33 89.66 79.66 90.32 80 91 C80.09202122 93.24664431 80.11749805 95.49610433 80.11352539 97.74462891 C80.11367142 98.43742447 80.11381744 99.13022003 80.1139679 99.8440094 C80.11327018 102.13822541 80.10548442 104.43236064 80.09765625 106.7265625 C80.09579157 108.31554113 80.0943679 109.90452034 80.09336853 111.49349976 C80.08954731 115.67909325 80.07972039 119.86465213 80.06866455 124.05023193 C80.05844194 128.31994153 80.05386909 132.5896567 80.04882812 136.859375 C80.03809778 145.23959923 80.02102608 153.61979531 80 162 C81.23805893 161.99777939 82.47611786 161.99555878 83.75169373 161.99327087 C95.39185222 161.97304146 107.03200717 161.95802883 118.67217922 161.94818783 C124.65719266 161.94295849 130.64219196 161.93585992 136.62719727 161.92456055 C142.39783429 161.91373347 148.16845768 161.90772355 153.93910408 161.90512276 C156.14602943 161.90326818 158.352954 161.89964696 160.55987358 161.89426994 C163.63946041 161.8870619 166.71899014 161.88600896 169.79858398 161.88647461 C170.72071182 161.88287933 171.64283966 161.87928406 172.59291077 161.87557983 C178.88594784 161.88594784 178.88594784 161.88594784 180 163 C180.09500548 165.46444057 180.12557985 167.90074626 180.11352539 170.36547852 C180.11367142 171.13615662 180.11381744 171.90683472 180.1139679 172.7008667 C180.1132686 175.26024139 180.10547545 177.8195442 180.09765625 180.37890625 C180.09579213 182.14867615 180.0943682 183.91844656 180.09336853 185.68821716 C180.08954288 190.35551366 180.0797122 195.02277923 180.06866455 199.69006348 C180.05845144 204.44897035 180.05387113 209.20788221 180.04882812 213.96679688 C180.03808997 223.31121153 180.02101299 232.6556032 180 242 C177.28631937 242.90456021 175.74072293 243.12385605 172.95674133 243.12025452 C172.1364444 243.12162918 171.31614746 243.12300385 170.47099304 243.12442017 C169.57475723 243.12082489 168.67852142 243.11722961 167.75512695 243.11352539 C166.33532532 243.11374443 166.33532532 243.11374443 164.88684082 243.1139679 C161.75396443 243.11327047 158.62114727 243.10548599 155.48828125 243.09765625 C153.3178053 243.09579147 151.14732894 243.09436785 148.97685242 243.09336853 C143.26072022 243.08954811 137.54461338 243.07972184 131.82849121 243.06866455 C124.97192662 243.05664301 118.11535355 243.05204593 111.25878143 243.04621124 C100.83916998 243.03650987 90.41961418 243.01734996 80 243 C80 273.36 80 303.72 80 335 C146.66 335 213.32 335 282 335 C282 364.7 282 394.4 282 425 C188.94 425 95.88 425 0 425 C-0.78742325 420.27546052 -1.12363105 416.33073411 -1.12025452 411.59683228 C-1.12110894 410.87300051 -1.12196337 410.14916875 -1.12284368 409.40340269 C-1.12448441 406.98977544 -1.11900025 404.57621845 -1.11352539 402.16259766 C-1.11324319 400.42774456 -1.1134019 398.69289135 -1.1139679 396.95803833 C-1.11425458 392.25605376 -1.10837859 387.55409474 -1.10139394 382.85211611 C-1.09513904 377.93537812 -1.09455491 373.01863954 -1.09336853 368.10189819 C-1.09026152 358.79477616 -1.08205661 349.48766588 -1.07201904 340.18054903 C-1.06083835 329.58327333 -1.05534252 318.98599707 -1.05032361 308.38871694 C-1.03987349 286.59246994 -1.02153582 264.79623906 -1 243 C-24.1 243 -47.2 243 -71 243 C-71 216.27 -71 189.54 -71 162 C-47.57 162 -24.14 162 0 162 C-0.08378906 150.47320312 -0.16757813 138.94640625 -0.25390625 127.0703125 C-0.30459278 119.78776367 -0.35502444 112.50521456 -0.40429688 105.22265625 C-0.48263071 93.65183234 -0.56203442 82.08102255 -0.64819336 70.51025391 C-0.71092761 62.08467611 -0.7701331 53.65908229 -0.82505554 45.23344982 C-0.85427576 40.7698786 -0.88529388 36.30633585 -0.92053413 31.84280777 C-0.95361786 27.64537476 -0.98199903 23.44793674 -1.00670624 19.25044632 C-1.0166358 17.70644404 -1.02831295 16.16245191 -1.04183006 14.61847687 C-1.05996974 12.51722585 -1.07193253 10.4160294 -1.08229065 8.31472778 C-1.09058679 7.13667635 -1.09888292 5.95862492 -1.10743046 4.74487495 C-1 2 -1 2 0 0 Z " fill="#000000" transform="translate(171,8)"/>
<path d="M0 0 C0.72699097 -0.0049649 1.45398193 -0.00992981 2.20300293 -0.01504517 C4.61263976 -0.02967393 7.02221079 -0.03646942 9.43188477 -0.04199219 C11.10335798 -0.04774239 12.77483116 -0.05350014 14.44630432 -0.05926514 C17.95265002 -0.0697767 21.45897278 -0.07561856 24.96533203 -0.07910156 C29.462575 -0.08459121 33.95951595 -0.10862845 38.45666409 -0.13707352 C41.90958041 -0.15567724 45.3624236 -0.16090425 48.81538582 -0.16243744 C50.47361976 -0.16546888 52.13185226 -0.17351393 53.79003716 -0.18662262 C56.10765605 -0.20363869 58.42453184 -0.20181431 60.7421875 -0.1953125 C62.0618602 -0.19895813 63.3815329 -0.20260376 64.74119568 -0.20635986 C67.93579102 0.16113281 67.93579102 0.16113281 70.93579102 3.16113281 C70.93579102 33.19113281 70.93579102 63.22113281 70.93579102 94.16113281 C137.59579102 94.16113281 204.25579102 94.16113281 272.93579102 94.16113281 C272.93579102 123.86113281 272.93579102 153.56113281 272.93579102 184.16113281 C179.87579102 184.16113281 86.81579102 184.16113281 -9.06420898 184.16113281 C-9.85660777 179.40674011 -10.17689165 175.48141648 -10.14649963 170.72000122 C-10.14327051 169.9920859 -10.14004138 169.26417059 -10.1367144 168.51419723 C-10.12469633 166.08672112 -10.10531201 163.65936128 -10.0859375 161.23193359 C-10.07578866 159.48723092 -10.06609565 157.74252555 -10.05682373 155.99781799 C-10.03040337 151.26894796 -9.99761158 146.54014108 -9.96367383 141.81131983 C-9.92927068 136.86657562 -9.90072998 131.92179765 -9.87156677 126.97702026 C-9.81547151 117.61675051 -9.75410575 108.25652302 -9.69084543 98.89629924 C-9.61907285 88.23858837 -9.55317734 77.5808437 -9.48777497 66.92309213 C-9.35312474 45.00239511 -9.21109575 23.08175103 -9.06420898 1.16113281 C-6.07235977 -0.33479179 -3.33707923 0.0172765 0 0 Z " fill="#000000" transform="translate(180.064208984375,248.8388671875)"/>
<path d="M0 0 C93.06 0 186.12 0 282 0 C282 25.74 282 51.48 282 78 C188.94 78 95.88 78 0 78 C-0.84250235 73.78748825 -1.12658331 70.41126802 -1.12939453 66.16186523 C-1.13114685 65.4945639 -1.13289917 64.82726257 -1.13470459 64.13973999 C-1.13908631 61.9459977 -1.13619846 59.75233678 -1.1328125 57.55859375 C-1.13348652 56.02832524 -1.13445736 54.49805684 -1.13571167 52.9677887 C-1.13718359 49.76603167 -1.13505005 46.5643026 -1.13037109 43.36254883 C-1.12466928 39.26131437 -1.12795887 35.1601453 -1.13394356 31.05891323 C-1.1375587 27.90106209 -1.13640627 24.74322644 -1.13381577 21.58537483 C-1.13314939 20.07312067 -1.13396481 18.5608651 -1.13629532 17.04861259 C-1.138838 14.93528397 -1.13495868 12.822061 -1.12939453 10.70874023 C-1.12859894 9.50692612 -1.12780334 8.305112 -1.12698364 7.06687927 C-1 4 -1 4 0 0 Z " fill="#FF0000" transform="translate(171,443)"/>
<path d="M0 0 C0.495 0.99 0.495 0.99 1 2 C39.115 2.495 39.115 2.495 78 3 C78 2.01 78 1.02 78 0 C91.15154766 0.10732127 104.3030384 0.21991737 117.45448208 0.33933926 C123.5605376 0.39461766 129.66659787 0.44804538 135.77270508 0.49731445 C141.66009406 0.54488564 147.54742272 0.59722554 153.43474007 0.65294075 C155.68630544 0.67339725 157.93788738 0.69210474 160.18948174 0.70907402 C163.33137913 0.73304535 166.47316133 0.76310947 169.61499023 0.79467773 C171.02623421 0.80331093 171.02623421 0.80331093 172.46598816 0.81211853 C178.88594784 0.88594784 178.88594784 0.88594784 180 2 C180.09500548 4.46444057 180.12557985 6.90074626 180.11352539 9.36547852 C180.11367142 10.13615662 180.11381744 10.90683472 180.1139679 11.7008667 C180.1132686 14.26024139 180.10547545 16.8195442 180.09765625 19.37890625 C180.09579213 21.14867615 180.0943682 22.91844656 180.09336853 24.68821716 C180.08954288 29.35551366 180.0797122 34.02277923 180.06866455 38.69006348 C180.05845144 43.44897035 180.05387113 48.20788221 180.04882812 52.96679688 C180.03808997 62.31121153 180.02101299 71.6556032 180 81 C177.28322514 81.90559162 175.72151284 82.1255176 172.93223572 82.12698364 C172.10641495 82.12980347 171.28059418 82.13262329 170.42974854 82.13552856 C169.52730408 82.13350433 168.62485962 82.1314801 167.69506836 82.12939453 C166.74199295 82.13114685 165.78891754 82.13289917 164.80696106 82.13470459 C161.65123686 82.13911207 158.49556853 82.1361892 155.33984375 82.1328125 C153.15173837 82.1334858 150.96363307 82.13445604 148.77552795 82.13571167 C144.18815397 82.1371871 139.60079945 82.13503882 135.01342773 82.13037109 C129.12282483 82.12467054 123.23226746 82.12795586 117.34166622 82.13394356 C112.82336583 82.13755046 108.3050763 82.13641004 103.78677559 82.13381577 C101.61417193 82.13314703 99.44156729 82.13397307 97.26896477 82.13629532 C94.23779548 82.1388243 91.20670081 82.13497788 88.17553711 82.12939453 C86.81883408 82.13243088 86.81883408 82.13243088 85.4347229 82.13552856 C79.22852892 82.11426446 79.22852892 82.11426446 77 81 C74.65217704 80.90259832 72.30150222 80.87202623 69.95166016 80.87060547 C69.22627548 80.86885315 68.50089081 80.86710083 67.75352478 80.86529541 C65.34867988 80.86088399 62.94390819 80.86381301 60.5390625 80.8671875 C58.8699848 80.86651411 57.2009072 80.86554379 55.53182983 80.86428833 C52.02967395 80.8628122 48.52754355 80.86496266 45.02539062 80.86962891 C40.53732581 80.87531733 36.04932091 80.87205228 31.56125832 80.86605644 C28.11259511 80.86244103 24.66394608 80.86359409 21.21528244 80.86618423 C19.56068286 80.86685125 17.90608199 80.86603296 16.25148392 80.86370468 C13.93666433 80.86116309 11.62194131 80.86504044 9.30712891 80.87060547 C7.33095078 80.87179886 7.33095078 80.87179886 5.31484985 80.87301636 C2.59059762 80.97737568 0.59401518 81.34211159 -2 82 C-4.26131153 82.08770545 -6.52507798 82.11765497 -8.78808594 82.11352539 C-9.47250889 82.11364593 -10.15693184 82.11376646 -10.86209488 82.11389065 C-13.06955506 82.11314643 -15.27692999 82.10554063 -17.484375 82.09765625 C-18.85042276 82.09618531 -20.21647109 82.09516554 -21.58251953 82.09460449 C-26.63835497 82.08936924 -31.69417833 82.07540799 -36.75 82.0625 C-48.0525 82.041875 -59.355 82.02125 -71 82 C-71 55.27 -71 28.54 -71 1 C-35.855 0.505 -35.855 0.505 0 0 Z " fill="#C2C2C2" transform="translate(171,169)"/>
<path d="M0 0 C8.58 0 17.16 0 26 0 C29.27490088 3.27490088 30.88324986 5.91248249 33 10 C33 10.99 33 11.98 33 13 C33.66 13 34.32 13 35 13 C36.12687128 15.7366874 37.1159878 18.40209104 37.9375 21.25 C38.288125 22.1575 38.63875 23.065 39 24 C39.99 24.33 40.98 24.66 42 25 C43.4477922 27.89558441 44 29.74188938 44 33 C44.66 33 45.32 33 46 33 C46 34.32 46 35.64 46 37 C46.66 37 47.32 37 48 37 C49.32 39.97 50.64 42.94 52 46 C52.33 30.82 52.66 15.64 53 0 C59.93 0 66.86 0 74 0 C74 29.7 74 59.4 74 90 C52 90 52 90 50 89 C50 87.68 50 86.36 50 85 C49.34 85 48.68 85 48 85 C46.80266012 82.88002166 45.61701287 80.75486324 44.4375 78.625 C44.09525391 78.02171875 43.75300781 77.4184375 43.40039062 76.796875 C42.53872905 75.23021759 41.76281817 73.61709138 41 72 C41.33 71.34 41.66 70.68 42 70 C41.01 69.67 40.02 69.34 39 69 C37.92239692 67.04072167 36.94163351 65.02813371 36 63 C34.67859257 60.7063859 33.34135276 58.42351349 31.98828125 56.1484375 C31 54 31 54 31 50 C30.34 50 29.68 50 29 50 C28.67 48.68 28.34 47.36 28 46 C27.34 46 26.68 46 26 46 C25.01 43.69 24.02 41.38 23 39 C22.67 55.83 22.34 72.66 22 90 C14.74 90 7.48 90 0 90 C0 60.3 0 30.6 0 0 Z M53 47 C54 50 54 50 54 50 Z " fill="#000000" transform="translate(541,109)"/>
<path d="M0 0 C0.97066406 0.44666016 0.97066406 0.44666016 1.9609375 0.90234375 C6.81392903 3.37122372 9.72846149 6.7991549 13 11 C13.7425 11.86625 14.485 12.7325 15.25 13.625 C20.45912757 20.69453027 21.39246123 29.6489596 21.375 38.1875 C21.37338867 39.01540039 21.37177734 39.84330078 21.37011719 40.69628906 C21.15315507 51.66776557 18.12428907 62.14366964 10.8125 70.5 C-6.36451847 85.76846086 -24.67896018 88.18875048 -47 87 C-58.19686801 85.80313199 -58.19686801 85.80313199 -60 84 C-60.09514592 81.29161914 -60.12554932 78.60881487 -60.11352539 75.90014648 C-60.11367142 75.05143982 -60.11381744 74.20273315 -60.1139679 73.32830811 C-60.11326848 70.50921109 -60.10547478 67.69017929 -60.09765625 64.87109375 C-60.09579217 62.92196183 -60.09436822 60.97282945 -60.09336853 59.0236969 C-60.08954255 53.88293168 -60.07971159 48.74219453 -60.06866455 43.60144043 C-60.05845215 38.35994852 -60.05387128 33.1184521 -60.04882812 27.87695312 C-60.03808939 17.58462306 -60.02101201 7.29231386 -60 -3 C-44.66182197 -11.11231845 -14.89131143 -7.12993887 0 0 Z M-35 13 C-36.25274723 15.50549445 -36.12029624 17.19735632 -36.11352539 20.00048828 C-36.11344986 21.04141632 -36.11337433 22.08234436 -36.11329651 23.15481567 C-36.10813522 24.28192963 -36.10297394 25.40904358 -36.09765625 26.5703125 C-36.0962413 27.72167694 -36.09482635 28.87304138 -36.09336853 30.05929565 C-36.08775716 33.74788986 -36.0752027 37.43642405 -36.0625 41.125 C-36.05748647 43.62109288 -36.05292331 46.1171867 -36.04882812 48.61328125 C-36.03778403 54.74220809 -36.0210348 60.87109976 -36 67 C-34.23555584 67.01893978 -32.47105302 67.03246848 -30.70654297 67.04370117 C-29.72394501 67.0518132 -28.74134705 67.05992523 -27.72897339 67.06828308 C-21.59410681 66.91477935 -15.302848 64.63766838 -10.8125 60.375 C-8.79777556 58.23295035 -8.79777556 58.23295035 -9 56 C-8.34 56 -7.68 56 -7 56 C-2.37835419 43.4948275 -2.37835419 43.4948275 -4.375 30.8125 C-4.91125 29.884375 -5.4475 28.95625 -6 28 C-6.2475 27.01 -6.495 26.02 -6.75 25 C-8.84350446 19.97558931 -12.40157082 17.16211154 -17.33203125 14.95703125 C-23.25178335 12.97135063 -28.79644863 12.64362577 -35 13 Z " fill="#000000" transform="translate(859,335)"/>
<path d="M0 0 C0.82298584 -0.00459229 1.64597168 -0.00918457 2.49389648 -0.01391602 C10.57731794 0.00637166 17.77506722 0.15544885 25.0625 4 C26.06023438 4.51304687 27.05796875 5.02609375 28.0859375 5.5546875 C30.35930603 6.92690093 32.03230641 8.06445287 33.6875 10.125 C33.6875 10.785 33.6875 11.445 33.6875 12.125 C34.3475 12.125 35.0075 12.125 35.6875 12.125 C38.68551348 17.87119251 39.27427182 22.67051003 38.6875 29.125 C38.1925 30.61 38.1925 30.61 37.6875 32.125 C37.0275 32.125 36.3675 32.125 35.6875 32.125 C35.605 32.8675 35.5225 33.61 35.4375 34.375 C34.53386905 37.68831349 33.35567101 39.00615832 30.6875 41.125 C29.6975 41.125 28.7075 41.125 27.6875 41.125 C27.6875 41.785 27.6875 42.445 27.6875 43.125 C28.368125 43.29 29.04875 43.455 29.75 43.625 C34.23338363 45.91438738 37.09333043 48.80803577 39.6875 53.125 C42.01114128 60.53987155 42.8399923 68.85373424 39.6875 76.125 C34.13476656 84.33113753 26.75037574 89.37815134 17.12890625 91.7578125 C9.93763368 92.98725666 2.91208391 93.33418293 -4.375 93.375 C-5.7206604 93.38877686 -5.7206604 93.38877686 -7.09350586 93.40283203 C-14.18850163 93.37065518 -20.11134399 92.32519267 -27.3125 91.125 C-27.3125 61.755 -27.3125 32.385 -27.3125 2.125 C-18.86002933 -0.69249022 -8.8557922 0.02722321 0 0 Z M-3.3125 19.125 C-3.3125 24.405 -3.3125 29.685 -3.3125 35.125 C-1.085 35.063125 1.1425 35.00125 3.4375 34.9375 C5.31695312 34.88529297 5.31695312 34.88529297 7.234375 34.83203125 C10.81282215 34.41606568 10.81282215 34.41606568 13.140625 31.80078125 C14.98987826 29.11706879 14.98987826 29.11706879 14.6875 25.5 C13.55937114 21.6925651 13.07804245 20.99428913 9.6875 19.125 C6.41033998 18.76291904 6.41033998 18.76291904 2.9375 18.9375 C0.875 18.999375 -1.1875 19.06125 -3.3125 19.125 Z M-3.3125 54.125 C-3.3125 60.395 -3.3125 66.665 -3.3125 73.125 C-1.105625 73.2075 1.10125 73.29 3.375 73.375 C4.61636719 73.42140625 5.85773438 73.4678125 7.13671875 73.515625 C11.31126173 73.05637935 12.85807628 72.18933898 15.6875 69.125 C16.97165585 65.76433681 17.12478863 62.68660079 16.6875 59.125 C14.3631214 55.59335882 14.3631214 55.59335882 10.6875 54.125 C5.93605698 53.72948587 1.4731447 53.89926204 -3.3125 54.125 Z " fill="#000000" transform="translate(499.3125,328.875)"/>
<path d="M0 0 C26 0 26 0 29 2 C30.72567366 5.58409144 32.2179176 9.08958801 33 13 C33.66 13 34.32 13 35 13 C35 14.32 35 15.64 35 17 C35.66 17 36.32 17 37 17 C40.66700794 21.52499377 42.71141093 26.37706588 44 32 C44.66 32 45.32 32 46 32 C47.17374173 34.43431639 48.33915763 36.87204182 49.5 39.3125 C49.83386719 40.00279297 50.16773438 40.69308594 50.51171875 41.40429688 C53 46.66015625 53 46.66015625 53 50 C53.66 50 54.32 50 55 50 C54.855625 48.98808594 54.71125 47.97617187 54.5625 46.93359375 C52.54155232 31.30817387 52.81918802 15.72059728 53 0 C59.6 0 66.2 0 73 0 C73 29.37 73 58.74 73 89 C65.74 89 58.48 89 51 89 C50.67 87.68 50.34 86.36 50 85 C49.34 85 48.68 85 48 85 C47.34 82.69 46.68 80.38 46 78 C45.34 78 44.68 78 44 78 C42.74335022 75.09399739 42 73.20395416 42 70 C41.34 70 40.68 70 40 70 C38.67933245 67.60835832 37.36838208 65.21219784 36.0625 62.8125 C35.68931641 62.13896484 35.31613281 61.46542969 34.93164062 60.77148438 C32.99445132 57.19379242 31.50172044 54.1013655 31 50 C30.34 50 29.68 50 29 50 C26.56839395 46.63316085 26 45.26649636 26 41 C25.34 41 24.68 41 24 41 C23.67 39.68 23.34 38.36 23 37 C22.67 54.16 22.34 71.32 22 89 C14.74 89 7.48 89 0 89 C0 59.63 0 30.26 0 0 Z " fill="#000000" transform="translate(1129,220)"/>
<path d="M0 0 C0 0.66 0 1.32 0 2 C0.556875 2.04125 1.11375 2.0825 1.6875 2.125 C5.294395 3.48977108 6.73038496 5.91080176 9 9 C9 9.66 9 10.32 9 11 C9.66 11 10.32 11 11 11 C11.80324487 12.64021375 12.59190592 14.28757057 13.375 15.9375 C13.81585937 16.85402344 14.25671875 17.77054687 14.7109375 18.71484375 C17.62721171 26.14692439 18.28500233 33.13007682 18.125 41.0625 C18.11597656 41.92810547 18.10695313 42.79371094 18.09765625 43.68554688 C18.07439723 45.79048779 18.03854008 47.89528342 18 50 C17.34 50 16.68 50 16 50 C16.103125 51.093125 16.20625 52.18625 16.3125 53.3125 C16.36486313 59.14575283 13.61442364 63.92054835 11 69 C10.34 69 9.68 69 9 69 C8.731875 69.639375 8.46375 70.27875 8.1875 70.9375 C7 73 7 73 4 74 C3.62875 74.86625 3.62875 74.86625 3.25 75.75 C-0.06110655 81.70999179 -7.13974303 84.35910465 -13.359375 86.265625 C-25.41994482 88.6984438 -37.16706362 88.18270028 -48 82 C-48.67933594 81.61972656 -49.35867188 81.23945313 -50.05859375 80.84765625 C-51.75 79.8125 -51.75 79.8125 -54 78 C-54 77.34 -54 76.68 -54 76 C-54.66 76 -55.32 76 -56 76 C-56 75.34 -56 74.68 -56 74 C-56.66 74 -57.32 74 -58 74 C-58 73.34 -58 72.68 -58 72 C-58.66 72 -59.32 72 -60 72 C-62.29648649 69.4385343 -63 68.52032428 -63 65 C-63.66 65 -64.32 65 -65 65 C-66.64846229 61.34268286 -67.30876162 58.2450298 -67.5625 54.25 C-67.51235954 50.81311556 -67.51235954 50.81311556 -69 48 C-69.0991757 45.85605481 -69.1297015 43.70873268 -69.125 41.5625 C-69.12757813 40.38816406 -69.13015625 39.21382813 -69.1328125 38.00390625 C-69 35 -69 35 -68 33 C-67.87032831 31.31426805 -67.77062708 29.62616718 -67.6875 27.9375 C-67.10457874 20.89618129 -65.19845948 14.9212083 -60 10 C-59.484375 9.278125 -58.96875 8.55625 -58.4375 7.8125 C-57.7259375 6.9153125 -57.7259375 6.9153125 -57 6 C-56.34 6 -55.68 6 -55 6 C-55 5.34 -55 4.68 -55 4 C-54.34 4 -53.68 4 -53 4 C-53 3.34 -53 2.68 -53 2 C-50.98407347 0.8662308 -48.96200253 -0.25661641 -46.9375 -1.375 C-45.81214844 -2.00148438 -44.68679688 -2.62796875 -43.52734375 -3.2734375 C-28.80400182 -10.48021174 -13.81789342 -7.42072054 0 0 Z M-37.40625 17.6171875 C-44.68681686 27.47981586 -44.57126979 37.71658808 -43.75 49.625 C-42.40635536 55.67140087 -39.88215232 61.03325124 -35 65 C-30.27039595 67.8501544 -25.36378611 67.64520905 -20 67 C-16.50273479 65.36547907 -16.50273479 65.36547907 -14 63 C-13.49855469 62.57976562 -12.99710938 62.15953125 -12.48046875 61.7265625 C-6.81936768 55.12443407 -6.42018903 44.43119911 -6.66796875 36.171875 C-7.11268641 31.92351337 -8.1764233 28.8575661 -10 25 C-10.28875 24.113125 -10.5775 23.22625 -10.875 22.3125 C-13.03703001 17.86832719 -16.47862849 14.87553189 -21 13 C-27.17774431 12.1351158 -33.08709555 12.65015989 -37.40625 17.6171875 Z " fill="#000000" transform="translate(615,335)"/>
<path d="M0 0 C0.67289063 0.32355469 1.34578125 0.64710938 2.0390625 0.98046875 C6.01451801 3.05278066 9.0690644 5.62498325 12 9 C12 9.66 12 10.32 12 11 C12.66 11 13.32 11 14 11 C16.08814329 13.87119703 17.08935769 16.31538009 18.0625 19.75 C18.5265625 21.35875 18.5265625 21.35875 19 23 C19.66 23.33 20.32 23.66 21 24 C24.1298884 35.20577327 24.48655832 48.83182657 21 60 C20.03293799 61.35741256 19.03457391 62.69331159 18 64 C17.27648573 65.98014432 16.59734611 67.97821315 16 70 C15.34 70 14.68 70 14 70 C13.9175 70.5671875 13.835 71.134375 13.75 71.71875 C11.97359186 77.12199144 6.41361087 81.56065398 1.6484375 84.40234375 C-0.55429435 85.40530585 -2.69660927 86.25659798 -5 87 C-6.58361328 87.53173828 -6.58361328 87.53173828 -8.19921875 88.07421875 C-12.61967 89.15093709 -16.65625952 89.38321538 -21.1875 89.375 C-22.01958984 89.37483887 -22.85167969 89.37467773 -23.70898438 89.37451172 C-31.86683668 89.22443504 -39.14450279 87.57033147 -46 83 C-46 82.34 -46 81.68 -46 81 C-46.598125 80.896875 -47.19625 80.79375 -47.8125 80.6875 C-50.33421352 79.89496146 -51.39685699 79.08408591 -53 77 C-53 76.01 -53 75.02 -53 74 C-54.1446875 73.7215625 -54.1446875 73.7215625 -55.3125 73.4375 C-59.03072385 71.44868259 -59.7163556 68.79318981 -61 65 C-61.25724854 64.3814917 -61.51449707 63.7629834 -61.77954102 63.12573242 C-64.4577128 56.24956998 -64.4121825 49.67973377 -64.3125 42.375 C-64.31572266 41.18648438 -64.31894531 39.99796875 -64.32226562 38.7734375 C-64.28570479 32.81734445 -64.06454948 27.60965238 -62 22 C-61.34 22 -60.68 22 -60 22 C-59.74476562 21.09507812 -59.74476562 21.09507812 -59.484375 20.171875 C-56.99570354 11.96455424 -56.99570354 11.96455424 -53 9 C-52.34 9 -51.68 9 -51 9 C-50.74089844 8.3915625 -50.48179688 7.783125 -50.21484375 7.15625 C-48.11528232 3.42969724 -44.70606214 1.93864967 -41 0 C-40.23945312 -0.39832031 -39.47890625 -0.79664063 -38.6953125 -1.20703125 C-26.82356853 -6.44021434 -11.49261216 -5.86728094 0 0 Z M-31 18 C-31 18.66 -31 19.32 -31 20 C-31.99 20.33 -32.98 20.66 -34 21 C-35.21869929 23.50447516 -35.21869929 23.50447516 -36 26 C-36.66 26 -37.32 26 -38 26 C-38.06058594 26.69867188 -38.12117188 27.39734375 -38.18359375 28.1171875 C-38.26738281 29.02726562 -38.35117188 29.93734375 -38.4375 30.875 C-38.51871094 31.77992188 -38.59992188 32.68484375 -38.68359375 33.6171875 C-39 36 -39 36 -40 38 C-40.34919509 45.21669848 -39.34221361 51.91742641 -38 59 C-37.34 59 -36.68 59 -36 59 C-35.731875 59.804375 -35.46375 60.60875 -35.1875 61.4375 C-34.795625 62.283125 -34.40375 63.12875 -34 64 C-33.01 64.33 -32.02 64.66 -31 65 C-31 65.66 -31 66.32 -31 67 C-27.6042877 69.05701803 -24.9382341 69.26969117 -21 69.25 C-19.96875 69.25515625 -18.9375 69.2603125 -17.875 69.265625 C-15.05402722 69.00499165 -13.39854282 68.45296344 -11 67 C-11 66.34 -11 65.68 -11 65 C-10.34 65 -9.68 65 -9 65 C-2.73233938 57.78470899 -1.91642613 50.24535912 -2 41 C-1.9896875 40.01386719 -1.979375 39.02773438 -1.96875 38.01171875 C-2.25721689 29.51396494 -5.66408911 23.33591089 -11.625 17.375 C-17.73562812 14.88548484 -25.20107003 14.53174045 -31 18 Z " fill="#000000" transform="translate(1098,222)"/>
<path d="M0 0 C0.17016853 4.42438171 0.00025858 7.11714511 -2 11 C-2.22443034 12.39037332 -2.40860621 13.78756298 -2.5625 15.1875 C-3 19 -3 19 -4 20 C-7 20.125 -7 20.125 -10 20 C-10.33 19.67 -10.66 19.34 -11 19 C-27.69855029 16.88063995 -27.69855029 16.88063995 -43 22 C-43.66 22 -44.32 22 -45 22 C-45 22.66 -45 23.32 -45 24 C-45.66 24 -46.32 24 -47 24 C-47 24.66 -47 25.32 -47 26 C-47.66 26 -48.32 26 -49 26 C-49 26.99 -49 27.98 -49 29 C-49.66 29 -50.32 29 -51 29 C-50.979375 30.27875 -50.95875 31.5575 -50.9375 32.875 C-50.875 36.75 -50.875 36.75 -52 39 C-52.3052622 43.65275976 -52.3052622 43.65275976 -51 48 C-50.86584528 50.6723621 -50.95681459 53.32250488 -51 56 C-50.34 56 -49.68 56 -49 56 C-47.97388051 57.65071396 -46.97691857 59.31970006 -46 61 C-42.06614947 65.61799845 -36.82748702 66.9453988 -31 68 C-27.22226906 68.18579005 -24.58326731 68.19442244 -21 67 C-20.67 62.71 -20.34 58.42 -20 54 C-24.62 54 -29.24 54 -34 54 C-34.02683697 50.85411056 -34.04675902 47.70844729 -34.0625 44.5625 C-34.07087891 43.66466797 -34.07925781 42.76683594 -34.08789062 41.84179688 C-34.09111328 40.98779297 -34.09433594 40.13378906 -34.09765625 39.25390625 C-34.10289307 38.46314697 -34.10812988 37.6723877 -34.11352539 36.85766602 C-34 35 -34 35 -33 34 C-30.50243196 33.8990997 -28.03312358 33.86028234 -25.53515625 33.8671875 C-24.78664902 33.86623077 -24.03814178 33.86527405 -23.26695251 33.86428833 C-21.68065304 33.86360654 -20.09435079 33.86546078 -18.50805664 33.86962891 C-16.07627091 33.87496976 -13.64467051 33.8696878 -11.21289062 33.86328125 C-9.67447876 33.86394218 -8.13606701 33.86522365 -6.59765625 33.8671875 C-5.86740738 33.86516327 -5.13715851 33.86313904 -4.38478088 33.86105347 C0.77008664 33.88504332 0.77008664 33.88504332 3 35 C3.0505894 41.79928419 3.08568667 48.5985201 3.10986328 55.39794922 C3.11993892 57.71242079 3.13359975 60.02687959 3.15087891 62.34130859 C3.17505865 65.66246693 3.1864673 68.9834574 3.1953125 72.3046875 C3.20563507 73.34430634 3.21595764 74.38392517 3.22659302 75.45504761 C3.22674408 76.41589264 3.22689514 77.37673767 3.22705078 78.36669922 C3.231492 79.21497284 3.23593323 80.06324646 3.24050903 80.93722534 C3 83 3 83 1 85 C-1.93008736 85.94603717 -4.97793064 86.42478914 -8 87 C-8.89074219 87.18820312 -9.78148437 87.37640625 -10.69921875 87.5703125 C-27.42164174 90.8098542 -45.45772228 90.03525233 -60.15234375 80.62109375 C-69.52424505 73.93685129 -74.99782618 65.31993567 -77 54 C-77.26584323 50.68156671 -77.28041171 47.39004825 -77.25 44.0625 C-77.25773438 43.22009766 -77.26546875 42.37769531 -77.2734375 41.50976562 C-77.24931808 33.67698323 -76.41327508 26.61991262 -72 20 C-71.690625 19.154375 -71.38125 18.30875 -71.0625 17.4375 C-69.82167025 14.59089057 -68.36251434 12.99337147 -66 11 C-65.34 11 -64.68 11 -64 11 C-64 10.34 -64 9.68 -64 9 C-46.86980043 -5.79757665 -20.76987369 -8.0771731 0 0 Z " fill="#000000" transform="translate(690,222)"/>
<path d="M0 0 C0.25 6.625 0.25 6.625 -2 10 C-2.45601261 12.50896686 -2.45601261 12.50896686 -2.625 15.1875 C-2.69976563 16.08855469 -2.77453125 16.98960938 -2.8515625 17.91796875 C-2.92503906 18.94857422 -2.92503906 18.94857422 -3 20 C-9.75 20.125 -9.75 20.125 -12 19 C-28.12174451 17.00837111 -28.12174451 17.00837111 -43 22 C-50.86984684 29.09829323 -52.38281766 37.80585029 -53 48 C-52.34 48 -51.68 48 -51 48 C-50.90203125 48.59167969 -50.8040625 49.18335938 -50.703125 49.79296875 C-49.74648024 54.84834148 -48.75233265 58.24766735 -45 62 C-44.01 62.495 -44.01 62.495 -43 63 C-43 63.66 -43 64.32 -43 65 C-38.74777372 66.57774912 -34.95886888 67.33674272 -30.4375 67.625 C-29.34308594 67.69976562 -28.24867188 67.77453125 -27.12109375 67.8515625 C-24.40695192 67.98064559 -21.71642254 68.03035109 -19 68 C-19.33 67.01 -19.66 66.02 -20 65 C-20.1328125 63.0625 -20.1328125 63.0625 -20.125 61 C-20.12757813 60.319375 -20.13015625 59.63875 -20.1328125 58.9375 C-20 57 -20 57 -19 54 C-20.49853516 54.01740234 -20.49853516 54.01740234 -22.02734375 54.03515625 C-23.31769531 54.04417969 -24.60804688 54.05320313 -25.9375 54.0625 C-27.22527344 54.07410156 -28.51304687 54.08570313 -29.83984375 54.09765625 C-33 54 -33 54 -34 53 C-34.09986975 50.15664952 -34.13877881 47.34302837 -34.125 44.5 C-34.13080078 43.30310547 -34.13080078 43.30310547 -34.13671875 42.08203125 C-34.12660767 36.12660767 -34.12660767 36.12660767 -33 35 C-30.3337397 34.91144839 -27.69352886 34.88475327 -25.02734375 34.90234375 C-24.22970108 34.9037587 -23.43205841 34.90517365 -22.61024475 34.90663147 C-20.05262565 34.91224684 -17.49509282 34.92480188 -14.9375 34.9375 C-13.20768355 34.94251302 -11.47786574 34.94707627 -9.74804688 34.95117188 C-5.49866447 34.96222125 -1.24934688 34.97949614 3 35 C3.0505894 41.79928419 3.08568667 48.5985201 3.10986328 55.39794922 C3.11993892 57.71242079 3.13359975 60.02687959 3.15087891 62.34130859 C3.17505865 65.66246693 3.1864673 68.9834574 3.1953125 72.3046875 C3.20563507 73.34430634 3.21595764 74.38392517 3.22659302 75.45504761 C3.22674408 76.41589264 3.22689514 77.37673767 3.22705078 78.36669922 C3.231492 79.21497284 3.23593323 80.06324646 3.24050903 80.93722534 C3 83 3 83 1 85 C-1.5390625 85.81640625 -1.5390625 85.81640625 -4.625 86.5625 C-5.62789062 86.81128906 -6.63078125 87.06007813 -7.6640625 87.31640625 C-25.26578347 90.92331629 -45.01155494 90.6975429 -60.625 80.875 C-61.40875 80.25625 -62.1925 79.6375 -63 79 C-63 78.34 -63 77.68 -63 77 C-63.66 77 -64.32 77 -65 77 C-67.625 74.75 -67.625 74.75 -70 72 C-70 70.68 -70 69.36 -70 68 C-70.66 68 -71.32 68 -72 68 C-75.4887612 63.70614007 -75.26854022 60.28129105 -75 55 C-75.66 55 -76.32 55 -77 55 C-77 47.74 -77 40.48 -77 33 C-76.34 33 -75.68 33 -75 33 C-75.03480469 32.39671875 -75.06960938 31.7934375 -75.10546875 31.171875 C-75.32770154 24.6107165 -75.32770154 24.6107165 -73.625 21.4375 C-72 20 -72 20 -70 20 C-70 18.68 -70 17.36 -70 16 C-69.34 16 -68.68 16 -68 16 C-67.74347656 15.41089844 -67.48695313 14.82179688 -67.22265625 14.21484375 C-62.85242554 6.29816383 -52.39159294 0.66074898 -44 -2 C-30.13831437 -5.9486475 -13.42336665 -5.22019814 0 0 Z " fill="#000000" transform="translate(846,111)"/>
<path d="M0 0 C0.66 0.61875 1.32 1.2375 2 1.875 C2 2.535 2 3.195 2 3.875 C2.99 4.205 3.98 4.535 5 4.875 C5 6.855 5 8.835 5 10.875 C5.66 10.875 6.32 10.875 7 10.875 C7.05454409 13.22948675 7.0939279 15.58267875 7.125 17.9375 C7.14820313 19.24847656 7.17140625 20.55945313 7.1953125 21.91015625 C6.92725517 27.35171995 6.52065529 31.32193731 2.6171875 35.30859375 C1.71226562 35.96988281 0.80734375 36.63117188 -0.125 37.3125 C-1.03507813 37.99183594 -1.94515625 38.67117188 -2.8828125 39.37109375 C-3.58148437 39.86738281 -4.28015625 40.36367188 -5 40.875 C-4.566875 41.35710937 -4.13375 41.83921875 -3.6875 42.3359375 C-3.130625 42.96757812 -2.57375 43.59921875 -2 44.25 C-1.1646875 45.18972656 -1.1646875 45.18972656 -0.3125 46.1484375 C1 47.875 1 47.875 1 49.875 C1.66 49.875 2.32 49.875 3 49.875 C4.24728689 53.78316559 5.10451859 57.34460352 5.4375 61.4375 C5.71810058 64.42389191 6.04115872 65.95552793 7.4375 68.6875 C9.79926618 73.505503 10.27371014 78.5944455 11 83.875 C6.4750021 83.875 1.95934738 83.7221655 -2.5625 83.5625 C-3.53380859 83.53994141 -4.50511719 83.51738281 -5.50585938 83.49414062 C-6.43333984 83.45869141 -7.36082031 83.42324219 -8.31640625 83.38671875 C-9.16662354 83.36053467 -10.01684082 83.33435059 -10.89282227 83.30737305 C-13 82.875 -13 82.875 -15 79.875 C-15.57413363 77.84767647 -16.08997409 75.80338486 -16.5625 73.75 C-17.16664395 70.00480201 -17.16664395 70.00480201 -19 66.875 C-19.29684878 65.50538089 -19.56242355 64.1289262 -19.8125 62.75 C-20.88843682 57.97314574 -21.82681662 54.68282006 -25 50.875 C-28.34744814 49.9960317 -31.54912126 49.82890047 -35 49.875 C-34.67 50.865 -34.34 51.855 -34 52.875 C-33.90498315 54.98921446 -33.86927301 57.10630877 -33.8671875 59.22265625 C-33.86525391 61.08954102 -33.86525391 61.08954102 -33.86328125 62.99414062 C-33.86714844 64.29544922 -33.87101563 65.59675781 -33.875 66.9375 C-33.86919922 68.89526367 -33.86919922 68.89526367 -33.86328125 70.89257812 C-33.86457031 72.13587891 -33.86585938 73.37917969 -33.8671875 74.66015625 C-33.86831543 75.80363525 -33.86944336 76.94711426 -33.87060547 78.12524414 C-34 80.875 -34 80.875 -35 82.875 C-42.59 82.875 -50.18 82.875 -58 82.875 C-59.57699214 79.72101572 -59.1383291 76.3394999 -59.12939453 72.87695312 C-59.13114685 72.05082016 -59.13289917 71.22468719 -59.13470459 70.3735199 C-59.1391168 67.63440875 -59.13618732 64.89536184 -59.1328125 62.15625 C-59.13348572 60.25817858 -59.1344559 58.36010725 -59.13571167 56.46203613 C-59.13718779 52.48070455 -59.13503683 48.49939538 -59.13037109 44.51806641 C-59.12467386 39.4065294 -59.12795332 34.2950449 -59.13394356 29.18350983 C-59.13755148 25.26311851 -59.13640951 21.34273971 -59.13381577 17.42234802 C-59.13314714 15.5372263 -59.13397269 13.65210345 -59.13629532 11.76698303 C-59.13882561 9.13564022 -59.13497589 6.50438327 -59.12939453 3.87304688 C-59.13141876 3.08856674 -59.13344299 2.30408661 -59.13552856 1.49583435 C-59.11426418 -3.89647164 -59.11426418 -3.89647164 -58 -6.125 C-40.94079064 -11.81140312 -14.71934145 -10.42620019 0 0 Z M-35 10.875 C-35 17.475 -35 24.075 -35 30.875 C-30.38 30.545 -25.76 30.215 -21 29.875 C-21 29.215 -21 28.555 -21 27.875 C-20.01 27.875 -19.02 27.875 -18 27.875 C-15.76006144 24.02510561 -15.70557507 21.33891135 -16.35546875 17.00390625 C-16.9183242 14.59962301 -16.9183242 14.59962301 -19.3125 12.3125 C-24.68921722 10.21649159 -29.24726482 10.61932288 -35 10.875 Z " fill="#000000" transform="translate(782,337.125)"/>
<path d="M0 0 C5.66461816 5.37127186 8.02298265 9.20550415 8.24267578 17.21704102 C8.26793179 24.91422988 8.18783506 30.12146285 2.8125 36.13671875 C2.1525 36.13671875 1.4925 36.13671875 0.8125 36.13671875 C0.8125 36.79671875 0.8125 37.45671875 0.8125 38.13671875 C0.1525 38.13671875 -0.5075 38.13671875 -1.1875 38.13671875 C-1.1875 38.79671875 -1.1875 39.45671875 -1.1875 40.13671875 C-2.1775 40.46671875 -3.1675 40.79671875 -4.1875 41.13671875 C-3.8575 42.12671875 -3.5275 43.11671875 -3.1875 44.13671875 C-2.5275 44.13671875 -1.8675 44.13671875 -1.1875 44.13671875 C-0.506875 45.59078125 -0.506875 45.59078125 0.1875 47.07421875 C1.47036221 50.20751457 1.47036221 50.20751457 3.8125 51.13671875 C4.41680292 53.44983997 4.92298541 55.78908279 5.375 58.13671875 C5.87354207 62.46345481 5.87354207 62.46345481 7.8125 66.13671875 C8.34686584 68.35052008 8.77534612 70.57807928 9.21484375 72.8125 C9.70922239 75.14137389 9.70922239 75.14137389 10.87890625 77.0546875 C11.8125 79.13671875 11.8125 79.13671875 11.8125 85.13671875 C4.2225 84.80671875 -3.3675 84.47671875 -11.1875 84.13671875 C-11.5175 83.14671875 -11.8475 82.15671875 -12.1875 81.13671875 C-12.8475 81.13671875 -13.5075 81.13671875 -14.1875 81.13671875 C-15.39508333 77.77273662 -16.37795957 74.43959254 -17.125 70.94921875 C-18.59368579 64.12619026 -20.05696854 57.39778168 -23.1875 51.13671875 C-26.8175 51.13671875 -30.4475 51.13671875 -34.1875 51.13671875 C-34.17964478 52.58292603 -34.17964478 52.58292603 -34.17163086 54.05834961 C-34.15357882 57.62344439 -34.14206726 61.18853511 -34.13256836 64.75366211 C-34.1275286 66.29891641 -34.1206968 67.84416591 -34.11206055 69.3894043 C-34.09997924 71.60596904 -34.09426827 73.82247093 -34.08984375 76.0390625 C-34.08468246 76.73386215 -34.07952118 77.4286618 -34.07420349 78.14451599 C-34.07400723 79.80901205 -34.12560871 81.47337374 -34.1875 83.13671875 C-35.84144117 84.79065992 -37.79065413 84.26671558 -40.0625 84.26953125 C-41.04734375 84.27082031 -42.0321875 84.27210938 -43.046875 84.2734375 C-44.08328125 84.26957031 -45.1196875 84.26570313 -46.1875 84.26171875 C-47.74210938 84.26751953 -47.74210938 84.26751953 -49.328125 84.2734375 C-50.31296875 84.27214844 -51.2978125 84.27085937 -52.3125 84.26953125 C-53.22257813 84.26840332 -54.13265625 84.26727539 -55.0703125 84.26611328 C-57.1875 84.13671875 -57.1875 84.13671875 -58.1875 83.13671875 C-58.28796992 80.43898904 -58.32366448 77.76683222 -58.31689453 75.06860352 C-58.31864685 74.22310944 -58.32039917 73.37761536 -58.32220459 72.50650024 C-58.32662458 69.69702127 -58.32368434 66.88760468 -58.3203125 64.078125 C-58.32098556 62.13378385 -58.3219556 60.18944279 -58.32321167 58.24510193 C-58.32468889 54.1636373 -58.32253354 50.08219452 -58.31787109 46.00073242 C-58.31217757 40.76025177 -58.31545027 35.51982237 -58.32144356 30.27934361 C-58.32505173 26.26201489 -58.32390933 22.24469839 -58.32131577 18.22736931 C-58.32064701 16.29479911 -58.32147313 14.36222781 -58.32379532 12.42965889 C-58.32632561 9.7311521 -58.32247571 7.03272904 -58.31689453 4.33422852 C-58.31891876 3.52947586 -58.32094299 2.72472321 -58.32302856 1.89558411 C-58.30176329 -3.63475467 -58.30176329 -3.63475467 -57.1875 -5.86328125 C-55.22900391 -6.27392578 -55.22900391 -6.27392578 -52.6640625 -6.49609375 C-51.72433594 -6.57988281 -50.78460937 -6.66367188 -49.81640625 -6.75 C-48.82511719 -6.82863281 -47.83382812 -6.90726562 -46.8125 -6.98828125 C-45.38357422 -7.11783203 -45.38357422 -7.11783203 -43.92578125 -7.25 C-11.73347352 -9.99440512 -11.73347352 -9.99440512 0 0 Z M-35.1875 12.13671875 C-34.8575 18.40671875 -34.5275 24.67671875 -34.1875 31.13671875 C-31.1246875 31.26046875 -31.1246875 31.26046875 -28 31.38671875 C-26.27716797 31.45632812 -26.27716797 31.45632812 -24.51953125 31.52734375 C-20.52244472 31.05875213 -18.964366 30.00004395 -16.1875 27.13671875 C-15.19342472 23.49177607 -14.95824026 21.05375772 -15.875 17.38671875 C-17.42795545 14.72450941 -18.51364276 13.68288661 -21.1875 12.13671875 C-24.69404968 11.77419478 -24.69404968 11.77419478 -28.4375 11.94921875 C-30.665 12.01109375 -32.8925 12.07296875 -35.1875 12.13671875 Z " fill="#000000" transform="translate(755.1875,114.86328125)"/>
<path d="M0 0 C5.81213586 5.85534876 8.9546961 11.53378677 9.375 19.8125 C9.18101697 27.8870436 5.60303285 33.77470162 0.46484375 39.78515625 C-1 41 -1 41 -4 41 C-3.2575 41.61875 -2.515 42.2375 -1.75 42.875 C3.73796602 48.36296602 5.29168123 56.67863386 7 64 C7.350625 65.010625 7.70125 66.02125 8.0625 67.0625 C9 70 9 70 9.5 73.6875 C9.77997994 77.12962965 9.77997994 77.12962965 12 80 C12 81.65 12 83.3 12 85 C3.75 84.67 -4.5 84.34 -13 84 C-14.64256303 79.89359242 -15.60031334 76.47749041 -16.4375 72.1875 C-17.54487238 66.84079293 -18.8969263 62.02908929 -21 57 C-21.66 55.35 -22.32 53.7 -23 52 C-26.63 51.67 -30.26 51.34 -34 51 C-34 61.89 -34 72.78 -34 84 C-41.92 84 -49.84 84 -58 84 C-58.02255012 72.54349633 -58.04091456 61.08700729 -58.05181217 49.63048649 C-58.05704122 44.31134787 -58.06413927 38.99222516 -58.07543945 33.6730957 C-58.08626755 28.54436015 -58.09227667 23.41563994 -58.09487724 18.28689384 C-58.09673163 16.32558386 -58.10035251 14.36427476 -58.10573006 12.40297127 C-58.11293946 9.66584553 -58.11399099 6.92878403 -58.11352539 4.19165039 C-58.11712067 3.37238068 -58.12071594 2.55311096 -58.12442017 1.70901489 C-58.11405216 -3.88594784 -58.11405216 -3.88594784 -57 -5 C-39.26915147 -7.73242548 -15.37364069 -11.16611797 0 0 Z M-34 13 C-34 19.27 -34 25.54 -34 32 C-31.1846875 32.0928125 -31.1846875 32.0928125 -28.3125 32.1875 C-26.72888672 32.23970703 -26.72888672 32.23970703 -25.11328125 32.29296875 C-21.58163401 31.96063055 -19.81744571 31.11678496 -17 29 C-14.52210285 25.28315427 -14.25457769 22.30502323 -15 18 C-16.44722123 14.7149703 -16.44722123 14.7149703 -20 13 C-24.74930912 12.58584734 -29.21452564 12.7763797 -34 13 Z " fill="#000000" transform="translate(530,225)"/>
<path d="M0 0 C7.92 0 15.84 0 24 0 C24.02505615 1.84263428 24.0501123 3.68526855 24.07592773 5.58374023 C24.15968302 11.65869816 24.24795456 17.73357718 24.33933926 23.80842495 C24.39460165 27.4931019 24.44802679 31.17778673 24.49731445 34.86254883 C24.54490932 38.41577841 24.59725007 41.96890875 24.65294075 45.52202034 C24.6733865 46.88042811 24.69209585 48.23886312 24.70907402 49.59731865 C24.73306877 51.49389705 24.76370332 53.39038799 24.79467773 55.28686523 C24.81799416 56.90902199 24.81799416 56.90902199 24.84178162 58.56394958 C24.72758019 60.94751051 24.72758019 60.94751051 26 62 C26.04063832 63.66617115 26.042721 65.33388095 26 67 C27.2065625 67.4640625 27.2065625 67.4640625 28.4375 67.9375 C31 69 31 69 32 70 C33.60163916 70.09919077 35.20779918 70.12969898 36.8125 70.125 C37.68519531 70.12757813 38.55789063 70.13015625 39.45703125 70.1328125 C41.78654215 70.01114834 43.76938015 69.65514709 46 69 C46 68.34 46 67.68 46 67 C46.66 67 47.32 67 48 67 C48 65.68 48 64.36 48 63 C48.66 63 49.32 63 50 63 C49.979375 62.195625 49.95875 61.39125 49.9375 60.5625 C50 58 50 58 51 57 C51.12322758 55.22096643 51.17789019 53.43713797 51.20532227 51.65405273 C51.2352401 49.94239174 51.2352401 49.94239174 51.26576233 48.19615173 C51.29083107 46.33368553 51.29083107 46.33368553 51.31640625 44.43359375 C51.33718735 43.16983414 51.35796844 41.90607452 51.37937927 40.60401917 C51.43383714 37.23881367 51.4840428 33.87359827 51.53222656 30.50830078 C51.58239759 27.07644099 51.63810655 23.64467169 51.69335938 20.21289062 C51.80070195 13.47533008 51.90193171 6.73770166 52 0 C59.26 0 66.52 0 74 0 C74.02255425 8.1969097 74.04091696 16.39379545 74.05181217 24.59072781 C74.0570402 28.39651577 74.06413638 32.20228148 74.07543945 36.00805664 C74.0862712 39.67792544 74.09227744 43.34777278 74.09487724 47.01765633 C74.09673097 48.42074992 74.1003506 49.82384229 74.10573006 51.2269268 C74.11294419 53.1856968 74.11340809 55.1444882 74.11352539 57.10327148 C74.115746 58.22023911 74.11796661 59.33720673 74.12025452 60.48802185 C74 63 74 63 73 64 C72.938125 64.99 72.87625 65.98 72.8125 67 C72.04041713 73.1260346 67.60633783 79.02294329 63 83 C62.34 83 61.68 83 61 83 C61 83.66 61 84.32 61 85 C59.81679424 85.63309191 58.62812152 86.25596718 57.4375 86.875 C56.77621094 87.22304688 56.11492188 87.57109375 55.43359375 87.9296875 C49.20493408 90.66909801 43.45637114 91.38575924 36.75 91.375 C35.91750732 91.37628906 35.08501465 91.37757813 34.22729492 91.37890625 C27.58517329 91.26531054 21.97590298 90.00809498 16 87 C16 86.34 16 85.68 16 85 C15.42507813 84.92394531 14.85015625 84.84789062 14.2578125 84.76953125 C11.2267636 83.73645749 9.95296398 82.10125664 7.875 79.6875 C7.19179688 78.90761719 6.50859375 78.12773437 5.8046875 77.32421875 C-0.92490971 68.65731325 -0.2778323 58.02866526 -0.1953125 47.55859375 C-0.19157457 46.18140368 -0.18873129 44.80421091 -0.18673706 43.42701721 C-0.17916194 39.83165935 -0.15956741 36.23646739 -0.1373291 32.64117432 C-0.11673747 28.96067549 -0.10770709 25.28014941 -0.09765625 21.59960938 C-0.07631458 14.39965579 -0.04118376 7.19987244 0 0 Z " fill="#000000" transform="translate(704,220)"/>
<path d="M0 0 C9.57 0 19.14 0 29 0 C31.10814567 4.21629134 31.17700355 6.39790775 31 11 C31.66 11 32.32 11 33 11 C35.14932752 15.4855531 36.23703827 19.09623115 36.68359375 24.02734375 C36.96893552 26.33522848 36.96893552 26.33522848 38.5625 29.5625 C40.13103179 33.3133369 40.24628137 35.97740434 40 40 C40.66 40 41.32 40 42 40 C42.50660156 41.66289062 42.50660156 41.66289062 43.0234375 43.359375 C43.47377534 44.82297298 43.92430633 46.28651155 44.375 47.75 C44.59671875 48.47960937 44.8184375 49.20921875 45.046875 49.9609375 C46.13415906 53.47862121 47.25824325 56.74268867 49 60 C50.21647808 63.72099178 51.07100688 67.24017297 51.4375 71.125 C51.70938524 74.92370558 51.70938524 74.92370558 53.5625 77.375 C55 80 55 80 55 90 C47.08 90 39.16 90 31 90 C28.75 83.25 28.75 83.25 29 79 C28.34 79 27.68 79 27 79 C27 76.69 27 74.38 27 72 C26.34 72 25.68 72 25 72 C25 70.68 25 69.36 25 68 C17.74 68 10.48 68 3 68 C3 69.98 3 71.96 3 74 C2.37890625 76.08984375 2.37890625 76.08984375 1.5625 77.9375 C0.06382972 81.59622557 -0.51844127 85.06727041 -1 89 C-2.63518494 90.63518494 -4.54921917 90.2242678 -6.8046875 90.31640625 C-7.78050781 90.35830078 -8.75632812 90.40019531 -9.76171875 90.44335938 C-10.78910156 90.48267578 -11.81648437 90.52199219 -12.875 90.5625 C-13.89464844 90.60568359 -14.91429687 90.64886719 -15.96484375 90.69335938 C-23.35342262 91 -23.35342262 91 -27 91 C-26.08902891 84.37670428 -25.05638037 78.97987463 -22 73 C-21.63879918 70.70965846 -21.43734108 68.43553996 -21.25 66.125 C-20.94380413 63.52233507 -20.13803535 61.35193972 -19 59 C-18.34 59 -17.68 59 -17 59 C-17.061875 58.01 -17.12375 57.02 -17.1875 56 C-17.21491645 51.53111789 -15.7208227 48.08695392 -14 44 C-13.34 44 -12.68 44 -12 44 C-12.020625 42.865625 -12.04125 41.73125 -12.0625 40.5625 C-12 37 -12 37 -11 36 C-10.553311 33.93835846 -10.10844957 31.87630706 -9.671875 29.8125 C-8.63642072 25.47804023 -7.26019439 21.25826777 -5.90234375 17.015625 C-5.1046468 14.34972871 -4.49154866 11.73645645 -4 9 C-3.34 9 -2.68 9 -2 9 C-1.34 6.03 -0.68 3.06 0 0 Z M14 27 C14 27.66 14 28.32 14 29 C13.34 29 12.68 29 12 29 C11.9175 30.11375 11.835 31.2275 11.75 32.375 C11.21278016 36.87321391 9.65910557 40.67668952 7.83984375 44.80078125 C6.82162289 47.07474511 6.82162289 47.07474511 7 50 C11.29 50 15.58 50 20 50 C20 47.36 20 44.72 20 42 C19.34 42 18.68 42 18 42 C18 40.68 18 39.36 18 38 C17.34 38 16.68 38 16 38 C15.67 34.37 15.34 30.74 15 27 C14.67 27 14.34 27 14 27 Z " fill="#000000" transform="translate(660,330)"/>
<path d="M0 0 C4.1117256 -0.02465746 8.22342278 -0.04283959 12.33520508 -0.05493164 C13.73495228 -0.0599708 15.1346942 -0.06680216 16.53442383 -0.07543945 C18.54245777 -0.0875232 20.55052957 -0.09269807 22.55859375 -0.09765625 C24.37315063 -0.10551147 24.37315063 -0.10551147 26.22436523 -0.11352539 C29 0 29 0 30 1 C30.04092937 3.33297433 30.04241723 5.66705225 30 8 C30.66 8 31.32 8 32 8 C34.03993514 12.92984325 35.40652968 16.57960425 35 22 C35.66 22 36.32 22 37 22 C37.67848208 24.18386418 38.3422551 26.37230084 39 28.5625 C39.556875 30.38974609 39.556875 30.38974609 40.125 32.25390625 C40.99514943 35.97923349 41.15688404 39.19065949 41 43 C41.66 43 42.32 43 43 43 C44.6183612 47.01072123 45.9175258 50.39175275 46.5 54.6875 C46.77857201 57.99615506 46.77857201 57.99615506 48.5 60.4375 C50.18081305 63.30888896 50.38976606 65.67817432 50.69140625 68.953125 C51.18434959 72.22277451 52.61905001 75.01714802 54 78 C55.78871738 82.51886497 56.19436592 86.1408521 56 91 C55.44731445 90.84152588 54.89462891 90.68305176 54.32519531 90.51977539 C51.77935695 89.95067733 49.40300555 89.7896572 46.796875 89.68359375 C45.8171875 89.64169922 44.8375 89.59980469 43.828125 89.55664062 C42.81234375 89.51732422 41.7965625 89.47800781 40.75 89.4375 C39.71875 89.39431641 38.6875 89.35113281 37.625 89.30664062 C35.0834613 89.20074318 32.54182804 89.09866557 30 89 C30 86.03 30 83.06 30 80 C29.34 80 28.68 80 28 80 C28 78.68 28 77.36 28 76 C27.34 76 26.68 76 26 76 C25.505 72.04 25.505 72.04 25 68 C17.41 68 9.82 68 2 68 C2 70.64 2 73.28 2 76 C1.34 76 0.68 76 0 76 C-0.06058594 76.60328125 -0.12117187 77.2065625 -0.18359375 77.828125 C-0.30927734 79.02695312 -0.30927734 79.02695312 -0.4375 80.25 C-0.55931641 81.43335938 -0.55931641 81.43335938 -0.68359375 82.640625 C-1 85 -1 85 -2 89 C-9.92 89.33 -17.84 89.66 -26 90 C-26 86.7 -26 83.4 -26 80 C-25.34 80 -24.68 80 -24 80 C-24 78.68 -24 77.36 -24 76 C-23.34 76 -22.68 76 -22 76 C-22.0825 74.96875 -22.165 73.9375 -22.25 72.875 C-22.29699144 66.36668543 -19.93324296 60.14495085 -18 54 C-17.34 54 -16.68 54 -16 54 C-15.87625 52.824375 -15.7525 51.64875 -15.625 50.4375 C-15.13564065 46.45879574 -14.1944795 42.82233441 -13 39 C-12.34 39 -11.68 39 -11 39 C-10.93941406 38.39671875 -10.87882813 37.7934375 -10.81640625 37.171875 C-10.73261719 36.37265625 -10.64882813 35.5734375 -10.5625 34.75 C-10.44068359 33.56664062 -10.44068359 33.56664062 -10.31640625 32.359375 C-10.02365007 30.17635361 -9.57935581 28.1226818 -9 26 C-8.34 26 -7.68 26 -7 26 C-7.061875 24.824375 -7.12375 23.64875 -7.1875 22.4375 C-7.19522878 18.04755091 -5.88070008 14.97840402 -4 11 C-3.32811503 8.66816393 -2.66084583 6.33498858 -2 4 C-1.35530933 2.65590322 -0.69298982 1.31984368 0 0 Z M13 26 C13 28.31 13 30.62 13 33 C12.34 33 11.68 33 11 33 C10.49733206 35.12437048 9.9979439 37.24951726 9.5 39.375 C9.2215625 40.55835938 8.943125 41.74171875 8.65625 42.9609375 C7.92964224 45.80763842 7.92964224 45.80763842 8 48 C7.34 48 6.68 48 6 48 C6 48.66 6 49.32 6 50 C10.95 49.67 15.9 49.34 21 49 C20.34 46.36 19.68 43.72 19 41 C18.34 41 17.68 41 17 41 C17.020625 39.865625 17.04125 38.73125 17.0625 37.5625 C17.41577477 34.18424326 17.41577477 34.18424326 16 33 C15.63239269 30.67182036 15.29758419 28.3381615 15 26 C14.34 26 13.68 26 13 26 Z " fill="#000000" transform="translate(878,220)"/>
<path d="M0 0 C7.54498233 -0.02312851 15.08996101 -0.04091769 22.63497066 -0.05181217 C26.13808885 -0.05703989 29.64118285 -0.0641355 33.14428711 -0.07543945 C37.16780841 -0.08834206 41.19130414 -0.09322912 45.21484375 -0.09765625 C46.47836166 -0.10281754 47.74187958 -0.10797882 49.04368591 -0.11329651 C50.204814 -0.11337204 51.36594208 -0.11344757 52.56225586 -0.11352539 C54.1044706 -0.11685631 54.1044706 -0.11685631 55.67784119 -0.12025452 C58 0 58 0 59 1 C59.0983721 2.33043625 59.13078592 3.66593344 59.1328125 5 C59.13474609 6.2065625 59.13474609 6.2065625 59.13671875 7.4375 C59.13285156 8.283125 59.12898437 9.12875 59.125 10 C59.13080078 11.2684375 59.13080078 11.2684375 59.13671875 12.5625 C59.13542969 13.366875 59.13414062 14.17125 59.1328125 15 C59.13168457 15.7425 59.13055664 16.485 59.12939453 17.25 C59 19 59 19 58 20 C55.47905924 20.08847743 52.98569107 20.11527301 50.46484375 20.09765625 C49.33496788 20.09553383 49.33496788 20.09553383 48.18226624 20.09336853 C45.7673044 20.08775376 43.35243399 20.07519883 40.9375 20.0625 C39.30403779 20.0574869 37.67057414 20.05292366 36.03710938 20.04882812 C32.02470415 20.03777954 28.01236759 20.02050506 24 20 C24 24.29 24 28.58 24 33 C34.56 33 45.12 33 56 33 C56 39.6 56 46.2 56 53 C45.44 53 34.88 53 24 53 C24 58.61 24 64.22 24 70 C26.58714844 69.98839844 29.17429687 69.97679687 31.83984375 69.96484375 C34.33520383 69.95705338 36.83056257 69.95097651 39.32592773 69.94506836 C41.06519168 69.94002796 42.80445136 69.9331957 44.54370117 69.92456055 C47.03825937 69.91248208 49.53276173 69.90676892 52.02734375 69.90234375 C52.80963852 69.89718246 53.59193329 69.89202118 54.39793396 69.88670349 C56.26567114 69.88650774 58.13329204 69.93800306 60 70 C61.5220959 71.5220959 61.12959521 72.88210082 61.1328125 75 C61.13474609 76.2065625 61.13474609 76.2065625 61.13671875 77.4375 C61.13285156 78.283125 61.12898437 79.12875 61.125 80 C61.13080078 81.2684375 61.13080078 81.2684375 61.13671875 82.5625 C61.13542969 83.366875 61.13414062 84.17125 61.1328125 85 C61.13168457 85.7425 61.13055664 86.485 61.12939453 87.25 C61 89 61 89 60 90 C58.16427369 90.09905152 56.32472425 90.12799207 54.48632812 90.12939453 C53.30840698 90.13254669 52.13048584 90.13569885 50.91687012 90.13894653 C49.63461548 90.1369223 48.35236084 90.13489807 47.03125 90.1328125 C45.72546997 90.13376923 44.41968994 90.13472595 43.07434082 90.13571167 C40.30687278 90.13718833 37.53943696 90.13503511 34.77197266 90.13037109 C31.21737351 90.12467381 27.66284986 90.12795298 24.10825348 90.13394356 C20.72841286 90.13841747 17.34859277 90.13528886 13.96875 90.1328125 C12.68649536 90.13483673 11.40424072 90.13686096 10.08312988 90.13894653 C8.31624817 90.13421829 8.31624817 90.13421829 6.51367188 90.12939453 C5.47078003 90.12859894 4.42788818 90.12780334 3.35339355 90.12698364 C1 90 1 90 0 89 C-0.09517803 86.23061034 -0.12554265 83.48622841 -0.11352539 80.71655273 C-0.11367142 79.84833893 -0.11381744 78.98012512 -0.1139679 78.08560181 C-0.11326846 75.20157414 -0.10547463 72.3176102 -0.09765625 69.43359375 C-0.09579218 67.43962133 -0.09436823 65.44564845 -0.09336853 63.45167542 C-0.08954248 58.19254298 -0.07971145 52.93343797 -0.06866455 47.67431641 C-0.0584523 42.31217825 -0.05387131 36.95003569 -0.04882812 31.58789062 C-0.03808926 21.05858167 -0.0210118 10.52929311 0 0 Z " fill="#000000" transform="translate(472,109)"/>
<path d="M0 0 C19.47 0 38.94 0 59 0 C59 6.27 59 12.54 59 19 C58 20 58 20 54.76538086 20.11352539 C53.33185874 20.11336631 51.89833088 20.10767407 50.46484375 20.09765625 C49.33496788 20.09553383 49.33496788 20.09553383 48.18226624 20.09336853 C45.7673044 20.08775376 43.35243399 20.07519883 40.9375 20.0625 C39.30403779 20.0574869 37.67057414 20.05292366 36.03710938 20.04882812 C32.02470415 20.03777954 28.01236759 20.02050506 24 20 C24 24.29 24 28.58 24 33 C34.56 33 45.12 33 56 33 C56.020625 36.279375 56.04125 39.55875 56.0625 42.9375 C56.071604 43.97253662 56.08070801 45.00757324 56.09008789 46.07397461 C56.09258545 46.88358643 56.09508301 47.69319824 56.09765625 48.52734375 C56.10289307 49.35999756 56.10812988 50.19265137 56.11352539 51.05053711 C56 53 56 53 55 54 C52.87819862 54.10005826 50.75306461 54.13081087 48.62890625 54.1328125 C47.33275391 54.13410156 46.03660156 54.13539063 44.70117188 54.13671875 C44.0223999 54.13462402 43.34362793 54.1325293 42.64428711 54.13037109 C40.57463211 54.1250313 38.505195 54.13031193 36.43554688 54.13671875 C35.13810547 54.13542969 33.84066406 54.13414062 32.50390625 54.1328125 C31.30580322 54.13168457 30.1077002 54.13055664 28.87329102 54.12939453 C26 54 26 54 24 53 C24 58.28 24 63.56 24 69 C26.51496094 68.98839844 29.02992188 68.97679687 31.62109375 68.96484375 C34.0469551 68.95705327 36.47281507 68.95097646 38.89868164 68.94506836 C40.58944316 68.9400281 42.28020029 68.93319595 43.97094727 68.92456055 C46.39600707 68.91248143 48.82100944 68.90676877 51.24609375 68.90234375 C52.38672523 68.89460182 52.38672523 68.89460182 53.55039978 68.88670349 C55.3673257 68.88650762 57.18413127 68.93802723 59 69 C63.71993409 73.71993409 60 82.3250052 60 89 C40.2 89 20.4 89 0 89 C0 59.63 0 30.26 0 0 Z " fill="#000000" transform="translate(548,220)"/>
<path d="M0 0 C1.01037827 0.00222061 2.02075653 0.00444122 3.06175232 0.00672913 C4.77341331 0.00684242 4.77341331 0.00684242 6.51965332 0.00695801 C7.76129745 0.01211929 9.00294159 0.01728058 10.2822113 0.02259827 C12.17785072 0.02472069 12.17785072 0.02472069 14.11178589 0.02688599 C17.47705394 0.0315487 20.84225495 0.04053972 24.20750427 0.05158997 C27.63930175 0.06180606 31.07110614 0.06638403 34.50291443 0.07142639 C41.24056569 0.08248072 47.97817616 0.09975815 54.71580505 0.12025452 C54.71580505 6.72025452 54.71580505 13.32025452 54.71580505 20.12025452 C43.16580505 20.12025452 31.61580505 20.12025452 19.71580505 20.12025452 C20.04580505 20.78025452 20.37580505 21.44025452 20.71580505 22.12025452 C20.81080008 23.61782323 20.84567704 25.11968383 20.84080505 26.62025452 C20.84467224 27.81134827 20.84467224 27.81134827 20.84861755 29.02650452 C20.71580505 31.12025452 20.71580505 31.12025452 19.71580505 33.12025452 C21.16201233 33.11239929 21.16201233 33.11239929 22.63743591 33.10438538 C26.2025307 33.08633334 29.76762142 33.07482178 33.33274841 33.06532288 C34.87800271 33.06028312 36.42325222 33.05345132 37.9684906 33.04481506 C40.18505534 33.03273376 42.40155724 33.02702279 44.6181488 33.02259827 C45.31294846 33.01743698 46.00774811 33.0122757 46.72360229 33.00695801 C48.38809835 33.00676175 50.05246004 33.05836323 51.71580505 33.12025452 C52.71580505 34.12025452 52.71580505 34.12025452 52.82933044 35.97792053 C52.82409363 36.76867981 52.81885681 37.55943909 52.8134613 38.37416077 C52.81096375 39.14316711 52.80846619 39.91217346 52.80589294 40.70448303 C52.79678894 41.68731262 52.78768494 42.67014221 52.77830505 43.68275452 C52.75768005 46.79712952 52.73705505 49.91150452 52.71580505 53.12025452 C41.82580505 53.12025452 30.93580505 53.12025452 19.71580505 53.12025452 C20.04580505 53.78025452 20.37580505 54.44025452 20.71580505 55.12025452 C20.81265593 57.28515647 20.84559944 59.45319255 20.84080505 61.62025452 C20.84467224 63.36822327 20.84467224 63.36822327 20.84861755 65.15150452 C20.71580505 68.12025452 20.71580505 68.12025452 19.71580505 70.12025452 C20.77082214 70.1150177 21.82583923 70.10978088 22.91282654 70.10438538 C26.81337135 70.08633551 30.71391245 70.07482257 34.61448669 70.06532288 C36.30524821 70.06028262 37.99600534 70.05345047 39.68675232 70.04481506 C42.11181212 70.03273595 44.53681449 70.02702329 46.9618988 70.02259827 C48.10253029 70.01485634 48.10253029 70.01485634 49.26620483 70.00695801 C51.08313076 70.00676214 52.89993633 70.05828175 54.71580505 70.12025452 C56.59214765 71.99659711 55.84826697 74.66107952 55.8525238 77.15345764 C55.84865662 77.94687561 55.84478943 78.74029358 55.84080505 79.55775452 C55.84660583 80.74208069 55.84660583 80.74208069 55.8525238 81.95033264 C55.84243572 87.86699318 55.84243572 87.86699318 54.71580505 90.12025452 C47.30120564 90.14338335 39.88661395 90.16117236 32.47198582 90.17206669 C29.02940157 90.17729434 25.58684193 90.18438983 22.14427185 90.19569397 C18.19025462 90.20859686 14.2362475 90.2134837 10.2822113 90.21791077 C8.4197451 90.22565269 8.4197451 90.22565269 6.51965332 90.23355103 C4.80799232 90.23366432 4.80799232 90.23366432 3.06175232 90.23377991 C2.05137405 90.23600052 1.04099579 90.23822113 0 90.24050903 C-2.28419495 90.12025452 -2.28419495 90.12025452 -3.28419495 89.12025452 C-3.38468018 86.38674703 -3.42035756 83.6784756 -3.41358948 80.94447327 C-3.4153418 80.08761932 -3.41709412 79.23076538 -3.41889954 78.34794617 C-3.42331912 75.50119532 -3.42037969 72.65450605 -3.41700745 69.80775452 C-3.41768046 67.83859749 -3.41865045 65.86944055 -3.41990662 63.90028381 C-3.42138373 59.76754467 -3.41922859 55.6348271 -3.41456604 51.50209045 C-3.40886875 46.19200931 -3.41214768 40.8819787 -3.4181385 35.57189941 C-3.42174374 31.50399898 -3.4206057 27.43611063 -3.41801071 23.36820984 C-3.41734134 21.40969334 -3.41817022 19.45117576 -3.42049026 17.49266052 C-3.42301618 14.76042252 -3.41917706 12.02826755 -3.41358948 9.29603577 C-3.41561371 8.4783371 -3.41763794 7.66063843 -3.41972351 6.81816101 C-3.39443619 0.17870466 -3.39443619 0.17870466 0 0 Z " fill="#000000" transform="translate(632.2841949462891,108.87974548339844)"/>
<path d="M0 0 C0.66 0.33 1.32 0.66 2 1 C3.88472859 1.15344209 5.77427874 1.24959571 7.6640625 1.31640625 C9.34628906 1.37924805 9.34628906 1.37924805 11.0625 1.44335938 C12.238125 1.48267578 13.41375 1.52199219 14.625 1.5625 C15.80835938 1.60568359 16.99171875 1.64886719 18.2109375 1.69335938 C21.14050328 1.79967426 24.07015588 1.90170642 27 2 C27 3.65 27 5.3 27 7 C27.66 7 28.32 7 29 7 C30.60355101 10.50776784 31.22036864 13.14354879 31 17 C31.99 17.33 32.98 17.66 34 18 C34.66 21.3 35.32 24.6 36 28 C36.66 28 37.32 28 38 28 C38.66 29.65 39.32 31.3 40 33 C41.98 27.555 41.98 27.555 44 22 C44.66 22 45.32 22 46 22 C46.1134375 21.13890625 46.226875 20.2778125 46.34375 19.390625 C47.01901913 15.90173448 48.09251679 13.00685069 49.5 9.75 C50.16515625 8.19539063 50.16515625 8.19539063 50.84375 6.609375 C51.53094369 5.05854599 52.24140844 3.51718312 53 2 C61.58 1.67 70.16 1.34 79 1 C79 2.98 79 4.96 79 7 C78.34 7 77.68 7 77 7 C76.731875 8.0725 76.46375 9.145 76.1875 10.25 C75.13882569 13.56160307 74.37247839 15.52866834 72 18 C71.34 18 70.68 18 70 18 C69.85884766 19.01320313 69.85884766 19.01320313 69.71484375 20.046875 C68.82651107 23.71670837 67.2654922 26.90644708 65.5625 30.25 C65.24990234 30.88679688 64.93730469 31.52359375 64.61523438 32.1796875 C62.25346482 36.87326759 62.25346482 36.87326759 60 38 C58.7223892 40.33843243 57.52838117 42.6643111 56.375 45.0625 C56.05015625 45.72572266 55.7253125 46.38894531 55.390625 47.07226562 C54.58834885 48.71221247 53.7934712 50.35577492 53 52 C52.34 52 51.68 52 51 52 C51 65.2 51 78.4 51 92 C43.08 92 35.16 92 27 92 C27.00902344 89.31230469 27.01804687 86.62460938 27.02734375 83.85546875 C27.01227558 81.21737082 26.98532656 78.57963858 26.95727539 75.94165039 C26.94423354 74.12529084 26.94331078 72.30879829 26.95532227 70.49243164 C27.11538809 56.40539632 27.11538809 56.40539632 20.59594727 44.18481445 C18.82240047 41.75687041 18.37471663 39.95443392 18 37 C17.34 37 16.68 37 16 37 C15.34 34.36 14.68 31.72 14 29 C13.34 29 12.68 29 12 29 C11.70867188 28.40574219 11.41734375 27.81148437 11.1171875 27.19921875 C8.31797943 21.53918483 5.3855433 15.97224987 2.33203125 10.4453125 C1.89246094 9.63835937 1.45289063 8.83140625 1 8 C0.40638672 6.92105469 0.40638672 6.92105469 -0.19921875 5.8203125 C-1.21730244 3.50603445 -0.83353821 2.33390698 0 0 Z " fill="#000000" transform="translate(853,107)"/>
<path d="M0 0 C23.43 0 46.86 0 71 0 C71 6.6 71 13.2 71 20 C63.08 20 55.16 20 47 20 C47 42.77 47 65.54 47 89 C39.08 89 31.16 89 23 89 C23 66.23 23 43.46 23 20 C15.41 20 7.82 20 0 20 C0 13.4 0 6.8 0 0 Z " fill="#000000" transform="translate(924,220)"/>
<path d="M0 0 C7.92 0 15.84 0 24 0 C24 22.77 24 45.54 24 69 C35.22 69 46.44 69 58 69 C59.80259486 70.80259486 59.13233831 73.23280575 59.13671875 75.62890625 C59.13285156 76.37011719 59.12898437 77.11132812 59.125 77.875 C59.13080078 78.97521484 59.13080078 78.97521484 59.13671875 80.09765625 C59.13084138 83.32433238 59.0271886 85.91843421 58 89 C38.86 89 19.72 89 0 89 C0 59.63 0 30.26 0 0 Z " fill="#000000" transform="translate(791,220)"/>
<path d="M0 0 C7.59 0 15.18 0 23 0 C24.7974182 1.7974182 24.12630946 4.24137962 24.13552856 6.63444519 C24.13350433 7.44279312 24.1314801 8.25114105 24.12939453 9.08398438 C24.13114685 9.93108475 24.13289917 10.77818512 24.13470459 11.6509552 C24.13912409 14.46524066 24.13618477 17.27946384 24.1328125 20.09375 C24.13348551 22.04048678 24.13445551 23.98722347 24.13571167 25.93395996 C24.13718878 30.01962075 24.13503368 34.10525971 24.13037109 38.19091797 C24.1246738 43.44046516 24.12795274 48.68996122 24.13394356 53.93950653 C24.13754883 57.96108387 24.13641074 61.98264899 24.13381577 66.00422668 C24.1331464 67.94041449 24.13397525 69.87660339 24.13629532 71.81278992 C24.13882129 74.51389524 24.13498205 77.21491659 24.12939453 79.91601562 C24.13141876 80.72436356 24.13344299 81.53271149 24.13552856 82.36555481 C24.11426248 87.88573752 24.11426248 87.88573752 23 89 C15.41 89 7.82 89 0 89 C0 59.63 0 30.26 0 0 Z " fill="#000000" transform="translate(1001,220)"/>
</svg>
