<?xml version="1.0" encoding="UTF-8"?>
<svg version="1.1" xmlns="http://www.w3.org/2000/svg" width="2075" height="529">
<path d="M0 0 C256.74 0 513.48 0 778 0 C778.33 171.27 778.66 342.54 779 519 C521.93 519 264.86 519 0 519 C0 347.73 0 176.46 0 0 Z " fill="#013398" transform="translate(22,5)"/>
<path d="M0 0 C37.95 0 75.9 0 115 0 C115.33 9.24 115.66 18.48 116 28 C88.61 28 61.22 28 33 28 C33 38.89 33 49.78 33 61 C58.41 61 83.82 61 110 61 C110 69.91 110 78.82 110 88 C84.59 88 59.18 88 33 88 C33 101.53 33 115.06 33 129 C61.38 129 89.76 129 119 129 C119 137.91 119 146.82 119 156 C79.73 156 40.46 156 0 156 C0 104.52 0 53.04 0 0 Z " fill="#505460" transform="translate(929,69)"/>
<path d="M0 0 C10.56 0 21.12 0 32 0 C32.02505615 2.93092529 32.0501123 5.86185059 32.07592773 8.8815918 C32.15969552 18.60457688 32.24834182 28.32751318 32.33933926 38.05043316 C32.39432077 43.94091239 32.44769879 49.83139676 32.49731445 55.72192383 C32.54532634 61.41484839 32.59767807 67.10771853 32.65294075 72.80057716 C32.67319883 74.96407514 32.69193724 77.12758795 32.70907402 79.2911129 C31.635441 100.07797568 31.635441 100.07797568 38 119 C38 119.66 38 120.32 38 121 C38.66 121 39.32 121 40 121 C41.00425828 121.99572351 42.0036079 122.99640507 43 124 C44.89487266 125.16417292 44.89487266 125.16417292 46.9375 126.125 C47.60652344 126.45757812 48.27554688 126.79015625 48.96484375 127.1328125 C57.05278096 130.57911204 68.51625705 130.39278575 76.6875 127.25 C83.59579861 123.91735343 87.41031936 120.22813266 90 113 C91.15736159 106.21365604 91.1626991 99.27602469 91.20532227 92.40966797 C91.21522186 91.40358994 91.22512146 90.3975119 91.23532104 89.36094666 C91.26663497 86.07138331 91.29157303 82.78180559 91.31640625 79.4921875 C91.33700185 77.19719083 91.35799897 74.90219774 91.37937927 72.60720825 C91.43433095 66.59365752 91.48385788 60.58007409 91.53222656 54.56646729 C91.58263915 48.41928225 91.63822166 42.27214415 91.69335938 36.125 C91.80061144 24.0833721 91.90165004 12.0417039 92 0 C102.56 0 113.12 0 124 0 C124.06805723 13.91822724 124.12297771 27.83634207 124.15543652 41.75469875 C124.17102322 48.21909761 124.1921324 54.6833757 124.22631836 61.14770508 C124.25916288 67.39823133 124.27690547 73.64864216 124.28463173 79.89924812 C124.29013052 82.27159502 124.30086684 84.64393634 124.31719017 87.01623344 C124.57913938 126.70152791 124.57913938 126.70152791 112.5625 140.875 C111.716875 141.57625 110.87125 142.2775 110 143 C109.48824219 143.47695313 108.97648437 143.95390625 108.44921875 144.4453125 C93.10881969 158.48089601 72.89366249 158.76170517 53.140625 158.17919922 C37.32964931 157.27704933 23.10458194 152.24295263 12.12890625 140.52734375 C-7.83761419 116.82396994 -1.14383742 74.89800628 -0.67376709 46.02636719 C-0.59161679 40.82303514 -0.52301186 35.61952428 -0.453125 30.41601562 C-0.31502694 20.27711879 -0.1611266 10.13855703 0 0 Z " fill="#505460" transform="translate(929,304)"/>
<path d="M0 0 C0.74830078 0.67675781 0.74830078 0.67675781 1.51171875 1.3671875 C1.51171875 2.0271875 1.51171875 2.6871875 1.51171875 3.3671875 C2.17171875 3.3671875 2.83171875 3.3671875 3.51171875 3.3671875 C14.9443752 15.28940354 20.71013751 33.17559542 20.48046875 49.60229492 C19.37526153 68.22219238 15.13624667 85.52244988 1.13671875 98.8046875 C-8.89166017 107.07853014 -20.56199773 110.53881201 -33.48828125 109.3671875 C-42.66899217 108.12255421 -49.66516099 104.69334821 -56.48828125 98.3671875 C-56.48828125 97.7071875 -56.48828125 97.0471875 -56.48828125 96.3671875 C-57.47828125 96.0371875 -58.46828125 95.7071875 -59.48828125 95.3671875 C-59.81828125 113.1871875 -60.14828125 131.0071875 -60.48828125 149.3671875 C-70.71828125 149.3671875 -80.94828125 149.3671875 -91.48828125 149.3671875 C-91.48828125 97.8871875 -91.48828125 46.4071875 -91.48828125 -6.6328125 C-81.91828125 -6.6328125 -72.34828125 -6.6328125 -62.48828125 -6.6328125 C-61.99328125 0.2971875 -61.99328125 0.2971875 -61.48828125 7.3671875 C-60.78703125 6.6453125 -60.08578125 5.9234375 -59.36328125 5.1796875 C-42.72480449 -11.31897012 -19.64807033 -13.61607747 0 0 Z M-48.48828125 19.3671875 C-50.00421875 20.388125 -50.00421875 20.388125 -51.55078125 21.4296875 C-57.41239299 26.53545983 -59.73167032 33.86479276 -60.48828125 41.3671875 C-60.57862718 44.0456786 -60.6286638 46.69062353 -60.61328125 49.3671875 C-60.61714844 50.04007813 -60.62101562 50.71296875 -60.625 51.40625 C-60.6104431 58.94672223 -59.75702689 64.58504883 -56.11328125 71.2421875 C-55.50742188 72.37398437 -54.9015625 73.50578125 -54.27734375 74.671875 C-52.70831435 77.63580173 -52.70831435 77.63580173 -49.48828125 78.3671875 C-49.48828125 79.0271875 -49.48828125 79.6871875 -49.48828125 80.3671875 C-42.64200995 84.66288714 -36.51078702 85.54755618 -28.48828125 84.3671875 C-22.10110004 81.76058084 -17.72737048 77.39028732 -14.48828125 71.3671875 C-9.71905251 58.90438813 -9.27995594 41.76004667 -14.48828125 29.3671875 C-17.55480511 23.98860199 -21.32201307 19.4189384 -27.11328125 16.953125 C-34.24225527 15.19433207 -42.34121041 15.01925935 -48.48828125 19.3671875 Z " fill="#505460" transform="translate(1497.48828125,118.6328125)"/>
<path d="M0 0 C1.73097455 1.73521714 2.62679158 3.35914751 3.59375 5.59765625 C4.25375 5.59765625 4.91375 5.59765625 5.59375 5.59765625 C6.05411629 6.95113314 6.51191537 8.30548325 6.96875 9.66015625 C7.22398438 10.41425781 7.47921875 11.16835937 7.7421875 11.9453125 C9.53293172 17.52290573 10.84244821 22.39412476 10.83325195 28.28881836 C10.83698318 29.57803696 10.84071442 30.86725555 10.84455872 32.19554138 C10.84225565 32.87577299 10.83995258 33.5560046 10.83757973 34.25684929 C10.83192147 36.41690925 10.84125361 38.57644484 10.8547821 40.73646545 C10.8916142 46.87421957 10.91056527 53.01179625 10.89916992 59.1496582 C10.8932368 62.91873271 10.9119727 66.68707126 10.94505882 70.45599556 C10.95288908 71.87457784 10.95190866 73.29324313 10.94103432 74.71180534 C10.8590774 85.89421965 12.5410201 96.49219646 17.59375 106.59765625 C7.36375 106.59765625 -2.86625 106.59765625 -13.40625 106.59765625 C-14.72625 103.29765625 -16.04625 99.99765625 -17.40625 96.59765625 C-18.39625 96.59765625 -19.38625 96.59765625 -20.40625 96.59765625 C-20.40625 97.25765625 -20.40625 97.91765625 -20.40625 98.59765625 C-30.85077395 108.04360814 -44.3108298 109.43469567 -57.76171875 108.99609375 C-63.19101003 108.65424545 -67.68235917 107.2942106 -72.40625 104.59765625 C-73.73772893 103.9272936 -75.07054 103.25954826 -76.40625 102.59765625 C-76.40625 101.93765625 -76.40625 101.27765625 -76.40625 100.59765625 C-77.004375 100.32953125 -77.6025 100.06140625 -78.21875 99.78515625 C-80.42444033 98.5877815 -81.84208187 97.55286641 -83.40625 95.59765625 C-83.40625 94.60765625 -83.40625 93.61765625 -83.40625 92.59765625 C-84.06625 92.59765625 -84.72625 92.59765625 -85.40625 92.59765625 C-89.66101605 83.16317501 -90.91987622 72.48440237 -87.40625 62.59765625 C-85.65455081 58.37427981 -83.9423915 54.60753126 -80.40625 51.59765625 C-79.74625 51.59765625 -79.08625 51.59765625 -78.40625 51.59765625 C-78.40625 50.93765625 -78.40625 50.27765625 -78.40625 49.59765625 C-65.99712965 42.77945826 -53.45691975 39.69308569 -39.69433594 37.03564453 C-33.19737288 35.78063488 -26.79924655 34.31285045 -20.40625 32.59765625 C-20.54829741 31.01397878 -20.69505153 29.43072307 -20.84375 27.84765625 C-20.92496094 26.9659375 -21.00617188 26.08421875 -21.08984375 25.17578125 C-21.46381538 21.81498764 -21.46381538 21.81498764 -22.40625 18.59765625 C-29.39851454 13.94771358 -39.88005039 14.86384942 -47.7890625 15.9140625 C-50.39322114 16.5187939 -52.04138868 17.10509347 -53.65625 19.28515625 C-53.90375 20.04828125 -54.15125 20.81140625 -54.40625 21.59765625 C-54.9399629 22.85107291 -55.48217105 24.10089441 -56.03125 25.34765625 C-56.711875 26.95640625 -56.711875 26.95640625 -57.40625 28.59765625 C-63.60268329 28.87267132 -69.28257056 27.82397827 -75.34375 26.59765625 C-76.7987793 26.31148437 -76.7987793 26.31148437 -78.28320312 26.01953125 C-80.65878095 25.5514371 -83.03299165 25.07734723 -85.40625 24.59765625 C-85.54456707 19.61132578 -84.89812928 16.95844499 -82.40625 12.59765625 C-82.04660156 11.95957031 -81.68695312 11.32148438 -81.31640625 10.6640625 C-80.35786239 8.96870201 -79.38338427 7.28237051 -78.40625 5.59765625 C-77.74625 5.59765625 -77.08625 5.59765625 -76.40625 5.59765625 C-76.07625 4.60765625 -75.74625 3.61765625 -75.40625 2.59765625 C-74.74625 2.59765625 -74.08625 2.59765625 -73.40625 2.59765625 C-73.40625 1.93765625 -73.40625 1.27765625 -73.40625 0.59765625 C-52.83705928 -11.92272071 -20.11937284 -15.46058364 0 0 Z M-34.15625 56.41015625 C-35.765 56.80170898 -35.765 56.80170898 -37.40625 57.20117188 C-48.73608257 59.62845412 -48.73608257 59.62845412 -57.40625 66.59765625 C-58.70534415 71.2116803 -58.63090877 74.79152771 -57.34375 79.41015625 C-54.58416361 83.95012095 -51.38849145 85.9369091 -46.40625 87.59765625 C-38.41876005 88.29831326 -31.68930585 86.32189408 -25.46875 81.16015625 C-18.49130673 72.49121158 -19.26089741 64.33759737 -19.40625 53.59765625 C-24.46672433 53.59765625 -29.26721519 55.1850012 -34.15625 56.41015625 Z " fill="#505460" transform="translate(1738.40625,118.40234375)"/>
<path d="M0 0 C0 0.66 0 1.32 0 2 C0.66 2 1.32 2 2 2 C2 2.66 2 3.32 2 4 C2.66 4 3.32 4 4 4 C5.625 5.3125 5.625 5.3125 7 7 C7 7.99 7 8.98 7 10 C7.66 10 8.32 10 9 10 C19.78487794 22.47230782 19.82601638 40.52477555 19 56 C17.15745887 70.55172249 10.39748709 82.7742553 -0.6875 92.3125 C-3 94 -3 94 -5 94 C-5 94.66 -5 95.32 -5 96 C-6.78600569 96.94824014 -8.57920245 97.88293729 -10.375 98.8125 C-11.37273437 99.33457031 -12.37046875 99.85664063 -13.3984375 100.39453125 C-21.77049495 104.12654384 -29.22243354 105.50783398 -38.375 105.375 C-39.38796143 105.36484863 -40.40092285 105.35469727 -41.44458008 105.34423828 C-55.69763342 105.04851751 -68.62121778 100.85016395 -80 92 C-80 91.34 -80 90.68 -80 90 C-80.8971875 89.62875 -80.8971875 89.62875 -81.8125 89.25 C-84.31626919 87.81927475 -85.48072388 86.4308418 -87 84 C-87 83.34 -87 82.68 -87 82 C-87.66 82 -88.32 82 -89 82 C-98.09294101 66.07836811 -99.81458581 46.26738978 -95.9375 28.375 C-93.84505835 21.56948588 -90.37196207 15.24505852 -87 9 C-86.34 9 -85.68 9 -85 9 C-84.690625 8.38125 -84.38125 7.7625 -84.0625 7.125 C-83.375 5.75 -82.6875 4.375 -82 3 C-81.34 3 -80.68 3 -80 3 C-80 2.34 -80 1.68 -80 1 C-78.35 0.34 -76.7 -0.32 -75 -1 C-75 -1.66 -75 -2.32 -75 -3 C-48.82599874 -16.68488391 -24.88565881 -16.59043921 0 0 Z M-59 22 C-59 22.66 -59 23.32 -59 24 C-59.66 24 -60.32 24 -61 24 C-65.52876274 31.66654835 -66.51572752 38.48454479 -66.5625 47.25 C-66.57667969 48.18408691 -66.59085938 49.11817383 -66.60546875 50.08056641 C-66.52730809 55.5781915 -65.73077518 59.55153175 -62.96508789 64.32885742 C-62 66 -62 66 -60.875 69.0625 C-57.7906812 73.89459945 -52.49520155 77.79787303 -47.03515625 79.67578125 C-38.00313183 81.11466422 -30.57269359 80.32793085 -23 75 C-16.36081168 69.36241337 -12.70159415 60.59452836 -12 52 C-11.29139385 41.176041 -12.97103204 31.14739967 -19 22 C-19.66 22 -20.32 22 -21 22 C-21.495 20.515 -21.495 20.515 -22 19 C-33.33277737 10.30275225 -49.66122586 10.17088609 -59 22 Z " fill="#505460" transform="translate(1350,356)"/>
<path d="M0 0 C0 0.66 0 1.32 0 2 C0.53625 2.226875 1.0725 2.45375 1.625 2.6875 C13.25977429 9.11724369 20.18267925 22.40223744 23.81640625 34.78125 C27.69514818 53.22561721 23.89563824 71.17396603 14 87 C12.43390149 89.16645585 10.83486785 91.03796309 9 93 C8.34 93 7.68 93 7 93 C7 93.66 7 94.32 7 95 C3.84352764 97.57852671 0.40468637 99.76363752 -3 102 C-3.61746094 102.40992188 -4.23492188 102.81984375 -4.87109375 103.2421875 C-11.81008897 107.53537879 -19.91817311 109.48711483 -28 110 C-28.7115625 110.05285156 -29.423125 110.10570312 -30.15625 110.16015625 C-45.07968097 110.7322211 -61.85483413 106.76637498 -73.14355469 96.74804688 C-75.49375339 94.55643301 -77.75781173 92.30238124 -80 90 C-80.66 89.34 -81.32 88.68 -82 88 C-82 87.01 -82 86.02 -82 85 C-82.66 85 -83.32 85 -84 85 C-84.79913872 83.16991133 -85.58890755 81.33573034 -86.375 79.5 C-87.03628906 77.96859375 -87.03628906 77.96859375 -87.7109375 76.40625 C-90.92962181 67.90112056 -91.36535771 60.36179266 -91.375 51.3125 C-91.39949219 50.12205078 -91.42398437 48.93160156 -91.44921875 47.70507812 C-91.50203615 31.51654517 -85.59662544 17.40846154 -74.64453125 5.4921875 C-72.6068717 3.64328976 -70.67362553 2.64815164 -68 2 C-68 1.34 -68 0.68 -68 0 C-45.53755829 -10.80417824 -22.13837541 -12.98500865 0 0 Z M-54 27 C-60.99032667 36.94910355 -60.82344711 48.24716393 -60 60 C-59.3784664 63.25340692 -58.4537764 66.03351033 -57 69 C-56.443125 70.175625 -55.88625 71.35125 -55.3125 72.5625 C-54.879375 73.366875 -54.44625 74.17125 -54 75 C-53.34 75 -52.68 75 -52 75 C-51.67 75.99 -51.34 76.98 -51 78 C-43.25017902 83.81236574 -36.56387464 85.07746323 -27 84 C-18.59725994 81.35784287 -14.19583846 76.75319999 -9.75 69.375 C-6.56692126 63.23620528 -6.75186684 57.62251126 -6.6875 50.8125 C-6.65849609 49.80896484 -6.62949219 48.80542969 -6.59960938 47.77148438 C-6.54158738 40.91149966 -7.70668681 36.00485227 -11 30 C-11.53625 28.948125 -12.0725 27.89625 -12.625 26.8125 C-16.82407462 21.83991163 -23.57472343 17.40872892 -30.19921875 16.796875 C-40.33808289 16.60587599 -47.13253572 19.3841582 -54 27 Z " fill="#505460" transform="translate(1364,118)"/>
<path d="M0 0 C1.92547843 1.58645514 3.39278272 3.07133927 5 5 C5 5.66 5 6.32 5 7 C6.485 7.495 6.485 7.495 8 8 C9.13500977 9.73071289 9.13500977 9.73071289 10.19140625 11.97265625 C10.57876953 12.79056641 10.96613281 13.60847656 11.36523438 14.45117188 C11.76033203 15.31291016 12.15542969 16.17464844 12.5625 17.0625 C12.96146484 17.89716797 13.36042969 18.73183594 13.77148438 19.59179688 C17.4689449 27.5113993 19.25585489 34.89792061 19.6875 43.625 C19.73455078 44.34945312 19.78160156 45.07390625 19.83007812 45.8203125 C20.07397116 50.23437662 19.75557185 53.4665689 19 58 C-5.42 58 -29.84 58 -55 58 C-51.09511792 72.80240849 -51.09511792 72.80240849 -40.8125 82 C-34.26150592 83.71829353 -27.85821005 84.24721893 -21.5625 81.5 C-17.56816891 77.60309162 -14.76607458 73.29822375 -13 68 C13.26666667 71.13333333 13.26666667 71.13333333 17 73 C16.60810307 80.44604163 11.71019118 87.41469134 7 93 C6.34 93 5.68 93 5 93 C4.505 94.485 4.505 94.485 4 96 C-8.50213662 106.28324596 -24.05938586 108.8026266 -39.77734375 107.74609375 C-50.98037071 106.3958918 -59.30463815 103.11956483 -68 96 C-68.73476562 95.48566406 -69.46953125 94.97132813 -70.2265625 94.44140625 C-71.10441406 93.72791016 -71.10441406 93.72791016 -72 93 C-72 92.34 -72 91.68 -72 91 C-72.66 91 -73.32 91 -74 91 C-84.06071395 78.33766116 -86.68447985 64.53900863 -86.75 48.6875 C-86.75939606 48.01494171 -86.76879211 47.34238342 -86.7784729 46.64944458 C-86.88973656 34.03860286 -83.82534469 22.92607727 -77.3125 12.125 C-76.73113281 11.13757813 -76.14976563 10.15015625 -75.55078125 9.1328125 C-75.03902344 8.42898437 -74.52726562 7.72515625 -74 7 C-73.34 7 -72.68 7 -72 7 C-71.731875 6.360625 -71.46375 5.72125 -71.1875 5.0625 C-70 3 -70 3 -67 2 C-67 1.34 -67 0.68 -67 0 C-64.84017317 -1.3043898 -62.67321304 -2.59324782 -60.5 -3.875 C-59.89929687 -4.23980469 -59.29859375 -4.60460937 -58.6796875 -4.98046875 C-40.83923078 -15.41903385 -16.22394876 -11.53768934 0 0 Z M-50.74609375 21.93359375 C-53.76544692 26.90941253 -55 32.23261218 -55 38 C-40.48 38 -25.96 38 -11 38 C-12.18008415 29.01011873 -12.18008415 29.01011873 -16 21 C-16.66 21 -17.32 21 -18 21 C-18.2578125 20.38640625 -18.515625 19.7728125 -18.78125 19.140625 C-20.86789986 15.47561178 -24.09293727 14.27630716 -28 13 C-37.39551409 11.51336802 -44.85784804 14.50509848 -50.74609375 21.93359375 Z " fill="#505460" transform="translate(1615,120)"/>
<path d="M0 0 C8.77175236 8.40185919 11.67053336 20.60111635 12.04938126 32.4638586 C12.101435 36.6009133 12.06707399 40.73421765 12.015625 44.87109375 C12.0081432 46.6656887 12.00245947 48.46029195 11.99847412 50.25489807 C11.98337005 54.92550133 11.94422426 59.5955886 11.8996582 64.26599121 C11.8583723 69.05290756 11.84039274 73.83990917 11.8203125 78.62695312 C11.77771124 87.98072926 11.70749084 97.33399054 11.625 106.6875 C1.065 106.6875 -9.495 106.6875 -20.375 106.6875 C-20.35179687 102.01335937 -20.32859375 97.33921875 -20.3046875 92.5234375 C-20.29444918 89.53384849 -20.28481991 86.5442816 -20.27734375 83.5546875 C-20.26546216 78.8261253 -20.25152125 74.09764171 -20.22412109 69.36914062 C-20.20213339 65.55007704 -20.19037774 61.73109794 -20.18524551 57.91197586 C-20.18159565 56.46658628 -20.17447104 55.02120048 -20.16353989 53.57584763 C-20.09500426 44.12406458 -20.7265879 35.00920329 -22.375 25.6875 C-22.52814667 24.75553802 -22.68129333 23.82357605 -22.83908081 22.8633728 C-23.14670307 20.58024522 -23.14670307 20.58024522 -25 19.5625 C-26.175625 19.129375 -26.175625 19.129375 -27.375 18.6875 C-28.385625 18.130625 -29.39625 17.57375 -30.4375 17 C-36.16626642 14.60790267 -42.24075251 15.53302832 -47.94140625 17.6328125 C-54.55700235 20.92426229 -56.79838285 24.63963648 -59.45272827 31.45449829 C-60.4895948 35.08920936 -60.65407667 38.19978377 -60.69384766 41.97802734 C-60.70389328 42.68116058 -60.7139389 43.38429382 -60.72428894 44.10873413 C-60.75497493 46.41362757 -60.77211497 48.71840564 -60.7890625 51.0234375 C-60.80778593 52.62912987 -60.82736021 54.23481252 -60.8477478 55.84048462 C-60.89895101 60.0522487 -60.93863969 64.26404464 -60.97589111 68.47595215 C-61.01600506 72.77962041 -61.0670636 77.08315749 -61.1171875 81.38671875 C-61.21380691 89.82022926 -61.29724378 98.25379446 -61.375 106.6875 C-71.605 106.6875 -81.835 106.6875 -92.375 106.6875 C-92.375 69.3975 -92.375 32.1075 -92.375 -6.3125 C-82.805 -6.3125 -73.235 -6.3125 -63.375 -6.3125 C-63.045 -2.0225 -62.715 2.2675 -62.375 6.6875 C-60.51875 4.893125 -60.51875 4.893125 -58.625 3.0625 C-42.50406085 -11.12191448 -17.30738149 -14.21563931 0 0 Z " fill="#505460" transform="translate(1170.375,352.3125)"/>
<path d="M0 0 C10.23 0 20.46 0 31 0 C31.01458252 2.28542725 31.02916504 4.57085449 31.04418945 6.92553711 C31.09466831 14.50127556 31.16128646 22.07681133 31.23571491 29.65235043 C31.28032271 34.24258077 31.31959966 38.83272432 31.34643555 43.4230957 C31.37256462 47.85827544 31.41303404 52.29311945 31.46318626 56.72809029 C31.47979031 58.41479865 31.49134464 60.10156499 31.49761391 61.78834343 C31.02204236 76.25212429 31.02204236 76.25212429 37.5 88.5 C43.0030799 91.80184794 48.75372404 91.60090756 55 91 C57.32465836 90.18821454 59.27270097 89.23637942 61.37890625 87.97265625 C63 87 63 87 66 86 C67.12085312 83.6569191 67.12085312 83.6569191 68 81 C68.33685318 80.37269989 68.67370636 79.74539978 69.02076721 79.09909058 C72.75809917 71.08771843 71.2140987 60.06960183 71.31640625 51.3671875 C71.3370231 49.87931809 71.35802064 48.39145392 71.37937927 46.90359497 C71.43411219 43.02067346 71.48373285 39.13770348 71.53222656 35.25469971 C71.59172136 30.57800085 71.65767612 25.90138903 71.72252655 21.22476196 C71.81992065 14.14989524 71.9091962 7.07496818 72 0 C82.23 0 92.46 0 103 0 C103 37.29 103 74.58 103 113 C93.43 113 83.86 113 74 113 C73.67 108.71 73.34 104.42 73 100 C72.360625 100.70125 71.72125 101.4025 71.0625 102.125 C61.8779054 111.20668597 50.00291788 115.85335567 37.1875 116.1875 C26.38264594 116.02599247 16.72083693 112.70481154 8.625 105.375 C0.51108053 96.68736906 -0.16867159 84.88425277 -0.11352539 73.56445312 C-0.11367142 72.76349213 -0.11381744 71.96253113 -0.1139679 71.13729858 C-0.1132773 68.51858711 -0.10552529 65.89994888 -0.09765625 63.28125 C-0.09578903 61.45422403 -0.09436656 59.62719755 -0.09336853 57.8001709 C-0.08956726 53.01296585 -0.07975758 48.22579159 -0.06866455 43.43859863 C-0.05839884 38.54500749 -0.05385989 33.65141133 -0.04882812 28.7578125 C-0.03813299 19.17185936 -0.02055575 9.58593707 0 0 Z " fill="#505460" transform="translate(1069,112)"/>
<path d="M0 0 C9.88388563 12.70440909 8.22600644 29.31628891 8.5625 44.5625 C8.58367889 45.4682074 8.60485779 46.37391479 8.62667847 47.30706787 C9.07371102 66.62234383 9.09935596 85.93078486 9 105.25 C-1.56 104.92 -12.12 104.59 -23 104.25 C-23.01458252 101.92380615 -23.02916504 99.5976123 -23.04418945 97.20092773 C-23.09460403 89.50144373 -23.16121122 81.8021605 -23.23571491 74.1028738 C-23.28037683 69.43635738 -23.31964213 64.76992742 -23.34643555 60.10327148 C-23.37251026 55.59677993 -23.41294205 51.09062184 -23.46318626 46.58433723 C-23.47982683 44.86806459 -23.49135858 43.1517343 -23.49761391 41.43539238 C-23.50728577 39.02485353 -23.53538069 36.6151624 -23.56762695 34.20483398 C-23.56619186 33.50064331 -23.56475677 32.79645264 -23.5632782 32.07092285 C-23.65810362 27.03455046 -24.85637472 23.70389815 -27 19.25 C-27.495 17.765 -27.495 17.765 -28 16.25 C-34.24598908 12.58955989 -41.12879217 12.77832329 -48 14.25 C-53.40500287 15.94766644 -56.99749936 18.53884126 -60.0390625 23.3359375 C-65.04158191 33.30030542 -64.17826475 45.86554947 -64.31640625 56.69140625 C-64.33702144 58.06860411 -64.35801895 59.44579629 -64.37937927 60.82298279 C-64.43412927 64.41821649 -64.48374264 68.01350275 -64.53222656 71.60882568 C-64.58278914 75.28939387 -64.63824521 78.96988825 -64.69335938 82.65039062 C-64.80081925 89.85020242 -64.90020728 97.05006157 -65 104.25 C-74.9 104.25 -84.8 104.25 -95 104.25 C-95 66.96 -95 29.67 -95 -8.75 C-85.76 -8.75 -76.52 -8.75 -67 -8.75 C-66.505 -1.82 -66.505 -1.82 -66 5.25 C-65.67 4.59 -65.34 3.93 -65 3.25 C-64.34 3.25 -63.68 3.25 -63 3.25 C-63 2.59 -63 1.93 -63 1.25 C-45.98537591 -13.99786854 -16.84470479 -17.62983933 0 0 Z " fill="#505460" transform="translate(1480,354.75)"/>
<path d="M0 0 C0.69996094 0.26554687 1.39992188 0.53109375 2.12109375 0.8046875 C8.39331561 3.73824338 12.18573355 10.30288658 15.13671875 16.31640625 C17.1476114 22.56746167 17.14443581 29.11340649 17.11352539 35.61914062 C17.11367142 36.43960876 17.11381744 37.2600769 17.1139679 38.10540771 C17.11327706 40.7890497 17.10552389 43.4726203 17.09765625 46.15625 C17.09578912 48.02811648 17.09436661 49.89998344 17.09336853 51.77185059 C17.08956659 56.67742279 17.07975632 61.58296497 17.06866455 66.48852539 C17.0584003 71.5027628 17.0538602 76.5170051 17.04882812 81.53125 C17.0381318 91.35418192 17.020554 101.17708376 17 111 C7.1 111 -2.8 111 -13 111 C-13.01981934 108.91204102 -13.03963867 106.82408203 -13.06005859 104.67285156 C-13.12732003 97.73179624 -13.20495159 90.79088382 -13.28752708 83.84999466 C-13.33722244 79.64661126 -13.38355205 75.44324978 -13.421875 71.23974609 C-13.45906938 67.17419153 -13.50551581 63.10883347 -13.55806351 59.0434494 C-13.5764279 57.50155882 -13.59160013 55.95962642 -13.60334396 54.4176712 C-12.9867061 38.5880214 -12.9867061 38.5880214 -18.3125 24.375 C-23.1540432 20.09642694 -27.12556499 19.59971583 -33.4375 19.75 C-40.14498013 20.40438831 -44.65219386 22.78263264 -49 28 C-55.53094124 37.33003438 -54.31543562 52.10903883 -54.4140625 63.02734375 C-54.432845 64.39597141 -54.45242318 65.76458835 -54.4727478 67.13319397 C-54.52332947 70.67900164 -54.56334263 74.22484657 -54.60089111 77.77081299 C-54.64140408 81.41174937 -54.6921791 85.05254308 -54.7421875 88.69335938 C-54.83900755 95.79551377 -54.91912132 102.89757524 -55 110 C-65.23 110 -75.46 110 -86 110 C-86 73.04 -86 36.08 -86 -2 C-76.43 -2 -66.86 -2 -57 -2 C-55.18884044 -0.18884044 -55.61800552 2.61278227 -55.4375 5.0625 C-55.31181641 6.71958984 -55.31181641 6.71958984 -55.18359375 8.41015625 C-55.12300781 9.26480469 -55.06242187 10.11945313 -55 11 C-54.19949219 10.22076172 -54.19949219 10.22076172 -53.3828125 9.42578125 C-38.06198172 -4.91430431 -19.55263992 -7.69196013 0 0 Z " fill="#505460" transform="translate(1861,114)"/>
<path d="M0 0 C0.99 0.495 0.99 0.495 2 1 C0.26476584 8.65080516 -1.91413536 15.79132025 -5 23 C-5.67028915 24.6652131 -6.33790203 26.33151311 -7 28 C-9.59874875 27.55450021 -11.80591943 27.0942677 -14.1875 25.9375 C-19.46695747 24.17768084 -24.99117468 23.99558734 -30 26.5 C-30.66 26.995 -31.32 27.49 -32 28 C-32.66 28 -33.32 28 -34 28 C-44.53277731 53.8832375 -41.12623192 83.523518 -41 111 C-51.23 111 -61.46 111 -72 111 C-72.0225479 96.41428473 -72.04091327 81.82858093 -72.05181217 67.24285221 C-72.05697491 60.47089579 -72.06401718 53.69895095 -72.07543945 46.92700195 C-72.08644714 40.39775574 -72.09227625 33.86851706 -72.09487724 27.33926201 C-72.09673199 24.84206388 -72.10035354 22.34486645 -72.10573006 19.84767342 C-72.11293684 16.36335931 -72.1139911 12.87909569 -72.11352539 9.39477539 C-72.11712067 8.35108795 -72.12071594 7.30740051 -72.12442017 6.23208618 C-72.1230455 5.28832626 -72.12167084 4.34456635 -72.12025452 3.37220764 C-72.12117631 2.54720292 -72.1220981 1.7221982 -72.12304783 0.87219334 C-72 -1 -72 -1 -71 -2 C-68.92737924 -2.08767112 -66.85179706 -2.10695873 -64.77734375 -2.09765625 C-63.51728516 -2.09443359 -62.25722656 -2.09121094 -60.95898438 -2.08789062 C-59.61848891 -2.07953403 -58.27799412 -2.07106907 -56.9375 -2.0625 C-55.59310058 -2.0574866 -54.2486994 -2.05292342 -52.90429688 -2.04882812 C-49.60282059 -2.03699488 -46.30143197 -2.02050971 -43 -2 C-42.67 1.96 -42.34 5.92 -42 10 C-40.824375 8.5975 -39.64875 7.195 -38.4375 5.75 C-27.33825397 -6.76617106 -14.72025149 -5.39814819 0 0 Z " fill="#505460" transform="translate(1269,114)"/>
<path d="M0 0 C9.9 0 19.8 0 30 0 C30 37.29 30 74.58 30 113 C20.1 113 10.2 113 0 113 C0 75.71 0 38.42 0 0 Z " fill="#505460" transform="translate(1205,346)"/>
<path d="M0 0 C2.47378124 2.47378124 3.03138231 4.56174345 4.125 7.875 C4.47820313 8.92429688 4.83140625 9.97359375 5.1953125 11.0546875 C6 14 6 14 6 18 C12.6 18 19.2 18 26 18 C22.48022006 21.51977994 19.68948416 24.09115077 15.6875 26.8125 C14.80449219 27.41707031 13.92148437 28.02164062 13.01171875 28.64453125 C12.34785156 29.09183594 11.68398438 29.53914063 11 30 C11.19335938 30.61746094 11.38671875 31.23492187 11.5859375 31.87109375 C13.32996151 37.54348868 14.78217894 43.19193035 16 49 C11.35622999 46.94581468 7.68015535 43.65158567 3.75390625 40.484375 C1.13882696 38.69505771 1.13882696 38.69505771 -1.484375 39.5078125 C-4.39369208 41.23352543 -7.10195421 43.10025496 -9.8125 45.125 C-10.78832031 45.84945312 -11.76414062 46.57390625 -12.76953125 47.3203125 C-13.87361328 48.15175781 -13.87361328 48.15175781 -15 49 C-16.55794867 44.32615399 -14.38116645 40.66462273 -12.8125 36.12890625 C-11.75400083 32.40930761 -11.75400083 32.40930761 -13 29 C-14.97477553 27.31799642 -16.87819653 25.84168443 -19 24.375 C-24.8883452 20.22330961 -24.8883452 20.22330961 -26 18 C-16.1 17.505 -16.1 17.505 -6 17 C-4.39609513 11.78047191 -4.39609513 11.78047191 -2.79907227 6.55883789 C-1.11111111 1.11111111 -1.11111111 1.11111111 0 0 Z " fill="#F5C807" transform="translate(579,240)"/>
<path d="M0 0 C2.6024781 2.6024781 3.03015406 4.91653304 4.0625 8.4375 C4.57490234 10.16806641 4.57490234 10.16806641 5.09765625 11.93359375 C5.39542969 12.94550781 5.69320312 13.95742187 6 15 C6.33 15.99 6.66 16.98 7 18 C13.27 18.33 19.54 18.66 26 19 C26 19.66 26 20.32 26 21 C23.69833213 22.79083852 21.39761099 24.47259242 19 26.125 C18.33226562 26.59292969 17.66453125 27.06085938 16.9765625 27.54296875 C15.32185734 28.70126236 13.66144693 29.85139765 12 31 C13.23416987 37.82423338 14.8915995 44.39367844 17 51 C8.31094763 45.38107947 8.31094763 45.38107947 4.75 42.0625 C2.25400023 39.72596761 2.25400023 39.72596761 -0.37890625 40.1484375 C-3.42517583 41.13813462 -5.24232399 42.50755582 -7.6875 44.5625 C-11.8028169 48 -11.8028169 48 -14 48 C-14 48.66 -14 49.32 -14 50 C-14.66 49.67 -15.32 49.34 -16 49 C-14.02 42.73 -12.04 36.46 -10 30 C-12.475 29.01 -12.475 29.01 -15 28 C-16.80313186 26.88390086 -18.57462886 25.71522249 -20.3125 24.5 C-21.63701172 23.58734375 -21.63701172 23.58734375 -22.98828125 22.65625 C-23.65214844 22.1096875 -24.31601563 21.563125 -25 21 C-25 20.34 -25 19.68 -25 19 C-18.4 19 -11.8 19 -5 19 C-4.67 16.69 -4.34 14.38 -4 12 C-3.3644775 9.83820258 -2.6786752 7.6903901 -1.9375 5.5625 C-1.57527344 4.51191406 -1.21304688 3.46132812 -0.83984375 2.37890625 C-0.56269531 1.59386719 -0.28554687 0.80882812 0 0 Z " fill="#F4C808" transform="translate(243,239)"/>
<path d="M0 0 C1.63201638 3.10965283 2.91437359 6.26690587 4.125 9.5625 C4.47820312 10.51253906 4.83140625 11.46257812 5.1953125 12.44140625 C6 15 6 15 6 18 C12.6 18 19.2 18 26 18 C26 18.66 26 19.32 26 20 C24.171875 21.40234375 24.171875 21.40234375 21.75 22.9375 C19.36876419 24.4588451 17.05842444 25.95450039 14.828125 27.69140625 C13 29 13 29 11 29 C11.45380895 30.89692143 11.91324992 32.79249595 12.375 34.6875 C12.63023437 35.74324219 12.88546875 36.79898438 13.1484375 37.88671875 C13.91706606 40.9795292 13.91706606 40.9795292 15.1640625 43.70703125 C16 46 16 46 15 49 C14.04738281 48.25492188 13.09476562 47.50984375 12.11328125 46.7421875 C10.8470775 45.78550022 9.58011004 44.82982315 8.3125 43.875 C7.68666016 43.38128906 7.06082031 42.88757813 6.41601562 42.37890625 C4.64794363 41.0644234 2.99857995 39.92806567 1 39 C-3.41957395 39.69222243 -6.45473306 42.79314836 -9.8125 45.625 C-10.78832031 46.44226563 -11.76414062 47.25953125 -12.76953125 48.1015625 C-13.50558594 48.72804687 -14.24164063 49.35453125 -15 50 C-16.51377067 45.45868798 -14.34140917 41.76533237 -12.73828125 37.44921875 C-11.17533515 33.2852182 -11.17533515 33.2852182 -12 29 C-14.32416979 27.20156948 -16.63552703 25.52145087 -19.0625 23.875 C-21.39546001 22.27434911 -23.70347392 20.65349878 -26 19 C-26 18.67 -26 18.34 -26 18 C-19.4 18 -12.8 18 -6 18 C-5.67 16.35 -5.34 14.7 -5 13 C-4.18314359 10.71548028 -3.32674957 8.44482583 -2.4375 6.1875 C-1.75494141 4.44533203 -1.75494141 4.44533203 -1.05859375 2.66796875 C-0.70925781 1.78753906 -0.35992187 0.90710938 0 0 Z " fill="#F5C807" transform="translate(411,71)"/>
<path d="M0 0 C2.26665457 3.39998185 3.3886974 6.83953891 4.625 10.6875 C5.40875 13.100625 6.1925 15.51375 7 18 C12.94 18.33 18.88 18.66 25 19 C21.88946842 22.11053158 19.2506787 24.73885366 15.8125 27.3125 C15.13832031 27.82425781 14.46414063 28.33601563 13.76953125 28.86328125 C12 30 12 30 10 30 C10.44472656 31.19238281 10.88945312 32.38476562 11.34765625 33.61328125 C11.9197524 35.17951168 12.49134066 36.7459277 13.0625 38.3125 C13.35705078 39.09818359 13.65160156 39.88386719 13.95507812 40.69335938 C14.22900391 41.45068359 14.50292969 42.20800781 14.78515625 42.98828125 C15.04176025 43.68477783 15.29836426 44.38127441 15.56274414 45.09887695 C16 47 16 47 15 50 C13.55367188 48.89978516 13.55367188 48.89978516 12.078125 47.77734375 C10.80257809 46.83006259 9.52650897 45.88348433 8.25 44.9375 C7.61578125 44.45216797 6.9815625 43.96683594 6.328125 43.46679688 C5.709375 43.01240234 5.090625 42.55800781 4.453125 42.08984375 C3.88754883 41.66566162 3.32197266 41.24147949 2.73925781 40.80444336 C1.00516421 39.81644914 1.00516421 39.81644914 -1.04541016 40.25390625 C-3.95584843 41.36486046 -6.15746109 43.17692782 -8.625 45.0625 C-13.78734622 49 -13.78734622 49 -16 49 C-14.64746536 42.54945018 -12.96939767 36.28894321 -11 30 C-11.54140625 29.75378906 -12.0828125 29.50757813 -12.640625 29.25390625 C-15.53939263 27.71333603 -18.09760026 25.87066436 -20.75 23.9375 C-21.73484375 23.22464844 -22.7196875 22.51179688 -23.734375 21.77734375 C-24.48203125 21.19082031 -25.2296875 20.60429687 -26 20 C-26 19.67 -26 19.34 -26 19 C-19.4 19 -12.8 19 -6 19 C-5.566875 17.535625 -5.13375 16.07125 -4.6875 14.5625 C-3.22296555 9.67374453 -1.64520893 4.83061347 0 0 Z " fill="#F8CA05" transform="translate(266,155)"/>
<path d="M0 0 C1.99775873 2.99663809 2.98997415 5.53662626 4.125 8.9375 C4.47820312 9.97777344 4.83140625 11.01804687 5.1953125 12.08984375 C6 15 6 15 6 19 C12.6 19 19.2 19 26 19 C22.55687411 22.44312589 20.11379744 24.79263746 16.1875 27.3125 C15.39730469 27.82425781 14.60710937 28.33601563 13.79296875 28.86328125 C13.20128906 29.23839844 12.60960937 29.61351563 12 30 C12.52842145 34.96716161 13.66433307 39.29185894 15.37890625 43.984375 C16 46 16 46 16 49 C11.72432497 47.05471598 8.2381446 44.21921817 4.53515625 41.36328125 C2.12423562 39.80727906 2.12423562 39.80727906 -0.421875 40.0078125 C-3.82049863 41.31576765 -6.48733471 43.3209047 -9.3125 45.5625 C-9.86228516 45.98724609 -10.41207031 46.41199219 -10.97851562 46.84960938 C-12.3251827 47.89181259 -13.66346201 48.94483843 -15 50 C-16 48 -16 48 -14.93359375 44.6640625 C-14.1919327 42.63002189 -13.43005635 40.60571671 -12.65039062 38.5859375 C-11.2360467 34.74094901 -11.2360467 34.74094901 -11.5390625 30.74609375 C-13.42886979 28.48742033 -15.47653706 27.05284572 -17.9375 25.4375 C-21.00440043 23.40946127 -23.37707056 21.62292944 -26 19 C-19.4 19 -12.8 19 -6 19 C-5.3503125 16.2465625 -5.3503125 16.2465625 -4.6875 13.4375 C-3.50752402 8.6895014 -2.10397292 4.40832421 0 0 Z " fill="#F7C905" transform="translate(327,93)"/>
<path d="M0 0 C2.59947787 2.59947787 3.0684435 4.92738453 4.125 8.4375 C4.47820312 9.59121094 4.83140625 10.74492187 5.1953125 11.93359375 C6 15 6 15 6 18 C12.6 18 19.2 18 26 18 C22.88946842 21.11053158 20.2506787 23.73885366 16.8125 26.3125 C16.13832031 26.82425781 15.46414063 27.33601563 14.76953125 27.86328125 C13 29 13 29 11 29 C11.45380895 30.89692143 11.91324992 32.79249595 12.375 34.6875 C12.63023437 35.74324219 12.88546875 36.79898438 13.1484375 37.88671875 C13.91706606 40.9795292 13.91706606 40.9795292 15.1640625 43.70703125 C16 46 16 46 15 49 C14.04738281 48.25492187 13.09476562 47.50984375 12.11328125 46.7421875 C10.8470775 45.78550022 9.58011004 44.82982315 8.3125 43.875 C7.68666016 43.38128906 7.06082031 42.88757813 6.41601562 42.37890625 C4.64565949 41.06272525 3.00531566 39.92085791 1 39 C-2.7445745 39.6946457 -5.24806715 41.7711795 -8.1875 44.125 C-11.784689 47 -11.784689 47 -14 47 C-14 47.66 -14 48.32 -14 49 C-14.66 49 -15.32 49 -16 49 C-15.70996094 48.07380859 -15.70996094 48.07380859 -15.4140625 47.12890625 C-15.15367187 46.28199219 -14.89328125 45.43507813 -14.625 44.5625 C-14.36976563 43.73878906 -14.11453125 42.91507812 -13.8515625 42.06640625 C-12.74363395 38.07684703 -11.86823556 34.04749349 -11 30 C-11.45439453 29.67201416 -11.90878906 29.34402832 -12.37695312 29.00610352 C-14.42042022 27.52825764 -16.46024139 26.04545964 -18.5 24.5625 C-19.21542969 24.04623047 -19.93085938 23.52996094 -20.66796875 22.99804688 C-21.34472656 22.50498047 -22.02148438 22.01191406 -22.71875 21.50390625 C-23.34716797 21.04830322 -23.97558594 20.5927002 -24.62304688 20.12329102 C-25.30463867 19.56726196 -25.30463867 19.56726196 -26 19 C-26 18.67 -26 18.34 -26 18 C-19.4 18 -12.8 18 -6 18 C-5.67 16.35 -5.34 14.7 -5 13 C-4.36687268 11.09270394 -3.6991466 9.19659727 -3 7.3125 C-2.4740625 5.88357422 -2.4740625 5.88357422 -1.9375 4.42578125 C-1 2 -1 2 0 0 Z " fill="#F7C906" transform="translate(411,409)"/>
<path d="M0 0 C3.77517359 2.73673043 4.22500432 6.90304854 5.1875 11.1875 C5.785625 13.765625 6.38375 16.34375 7 19 C13.6 19 20.2 19 27 19 C23.19221454 22.80778546 19.59285801 25.25117618 15.046875 28.0234375 C12.72659402 29.86302469 12.72659402 29.86302469 12.57421875 32.8359375 C13.02789655 36.20730466 13.88128143 39.06271194 15.0625 42.25 C15.76334671 44.1472416 16.42255239 46.06163315 17 48 C16.505 48.99 16.505 48.99 16 50 C15.18015625 49.36191406 14.3603125 48.72382813 13.515625 48.06640625 C12.42734349 47.23143164 11.33878732 46.39681493 10.25 45.5625 C9.71117187 45.14162109 9.17234375 44.72074219 8.6171875 44.28710938 C4.67494909 41.28032232 4.67494909 41.28032232 0 40 C-1.80782397 40.76270445 -1.80782397 40.76270445 -3.453125 42.08984375 C-4.071875 42.54423828 -4.690625 42.99863281 -5.328125 43.46679688 C-5.96234375 43.95212891 -6.5965625 44.43746094 -7.25 44.9375 C-7.8996875 45.41896484 -8.549375 45.90042969 -9.21875 46.39648438 C-10.82095394 47.58635642 -12.41162434 48.79173028 -14 50 C-15.46982817 45.59051549 -13.36851914 42.28724302 -11.65039062 38.18164062 C-10.63524279 35.58430053 -9.87269778 33.63077677 -10.43359375 30.8515625 C-12.76052245 28.10102832 -15.62971463 26.25495536 -18.625 24.3125 C-20.76940266 22.89873242 -22.88975578 21.46528226 -25 20 C-25 19.67 -25 19.34 -25 19 C-18.4 19 -11.8 19 -5 19 C-4.54625 17.164375 -4.0925 15.32875 -3.625 13.4375 C-2.49945463 8.92998417 -1.3163008 4.45517195 0 0 Z " fill="#F8CA05" transform="translate(494,93)"/>
<path d="M0 0 C2.26665457 3.39998185 3.3886974 6.83953891 4.625 10.6875 C5.40875 13.100625 6.1925 15.51375 7 18 C12.94 18.33 18.88 18.66 25 19 C21.88946842 22.11053158 19.2506787 24.73885366 15.8125 27.3125 C15.13832031 27.82425781 14.46414063 28.33601563 13.76953125 28.86328125 C12 30 12 30 10 30 C10.44472656 31.19238281 10.88945312 32.38476562 11.34765625 33.61328125 C11.9197524 35.17951168 12.49134066 36.7459277 13.0625 38.3125 C13.35705078 39.09818359 13.65160156 39.88386719 13.95507812 40.69335938 C14.22900391 41.45068359 14.50292969 42.20800781 14.78515625 42.98828125 C15.04176025 43.68477783 15.29836426 44.38127441 15.56274414 45.09887695 C16 47 16 47 15 50 C14.11957031 49.26652344 13.23914063 48.53304687 12.33203125 47.77734375 C11.15949551 46.82993487 9.9862826 45.88336365 8.8125 44.9375 C8.23435547 44.45216797 7.65621094 43.96683594 7.06054688 43.46679688 C3.63256823 40.72656361 3.63256823 40.72656361 -0.5703125 39.9375 C-3.63644689 41.27831761 -6.0412606 43.01554537 -8.6875 45.0625 C-13.80140598 49 -13.80140598 49 -16 49 C-15.12714103 44.82141984 -14.24937069 40.73425813 -12.875 36.6875 C-11.7936093 33.83714484 -11.7936093 33.83714484 -12 30 C-14.30557356 28.08555053 -16.51098832 26.44861675 -19 24.8125 C-21.34864309 23.22784602 -23.67892802 21.6253425 -26 20 C-26 19.67 -26 19.34 -26 19 C-19.4 19 -12.8 19 -6 19 C-5.566875 17.535625 -5.13375 16.07125 -4.6875 14.5625 C-3.22296555 9.67374453 -1.64520893 4.83061347 0 0 Z " fill="#F8CA05" transform="translate(266,324)"/>
<path d="M0 0 C0.66 0 1.32 0 2 0 C2.65077296 2.04009755 3.29539824 4.08215669 3.9375 6.125 C4.29714844 7.26195312 4.65679688 8.39890625 5.02734375 9.5703125 C6 13 6 13 7 19 C13.27 19 19.54 19 26 19 C22.82270675 22.17729325 20.21605594 24.74084058 16.6875 27.3125 C15.99011719 27.82425781 15.29273438 28.33601563 14.57421875 28.86328125 C14.05472656 29.23839844 13.53523437 29.61351562 13 30 C13.97556174 35.8326138 14.99591698 41.41719729 17 47 C17 47.66 17 48.32 17 49 C13.41486894 47.37815499 10.41007677 45.20743761 7.25 42.875 C6.26515625 42.15054688 5.2803125 41.42609375 4.265625 40.6796875 C3.14414062 39.84824219 3.14414062 39.84824219 2 39 C-3.40838443 42.56879789 -8.74979781 46.20198139 -14 50 C-15 48 -15 48 -14.56274414 46.12060547 C-14.30614014 45.37697754 -14.04953613 44.63334961 -13.78515625 43.8671875 C-13.51123047 43.06152344 -13.23730469 42.25585938 -12.95507812 41.42578125 C-12.66052734 40.58402344 -12.36597656 39.74226563 -12.0625 38.875 C-11.77181641 38.02550781 -11.48113281 37.17601562 -11.18164062 36.30078125 C-10.46106999 34.19813251 -9.73361685 32.09812523 -9 30 C-9.60231445 29.70939697 -10.20462891 29.41879395 -10.82519531 29.11938477 C-13.67640148 27.65185218 -16.15971592 25.82539223 -18.75 23.9375 C-19.73484375 23.22464844 -20.7196875 22.51179688 -21.734375 21.77734375 C-22.48203125 21.19082031 -23.2296875 20.60429687 -24 20 C-24 19.67 -24 19.34 -24 19 C-17.73 19 -11.46 19 -5 19 C-3.7273214 13.86983274 -3.7273214 13.86983274 -2.45727539 8.73901367 C-1.72236116 5.78787949 -0.96210745 2.88632236 0 0 Z " fill="#F9CA05" transform="translate(555,155)"/>
<path d="M0 0 C2.14642449 3.21963674 3.35881354 6.44429859 4.625 10.0625 C4.96917969 11.01866211 4.96917969 11.01866211 5.3203125 11.99414062 C7 16.738258 7 16.738258 7 19 C12.94 19 18.88 19 25 19 C21.82270675 22.17729325 19.21605594 24.74084058 15.6875 27.3125 C14.99011719 27.82425781 14.29273438 28.33601563 13.57421875 28.86328125 C13.05472656 29.23839844 12.53523437 29.61351562 12 30 C13.24702151 36.35450323 14.57364259 42.68327435 16 49 C10.46234932 45.93661877 5.24135737 42.54799576 0 39 C-4.95 42.63 -9.9 46.26 -15 50 C-16 48 -16 48 -15.56274414 46.12060547 C-15.30614014 45.37697754 -15.04953613 44.63334961 -14.78515625 43.8671875 C-14.51123047 43.06152344 -14.23730469 42.25585938 -13.95507812 41.42578125 C-13.66052734 40.58402344 -13.36597656 39.74226563 -13.0625 38.875 C-12.77181641 38.02550781 -12.48113281 37.17601562 -12.18164062 36.30078125 C-11.46106999 34.19813251 -10.73361685 32.09812523 -10 30 C-10.60231445 29.70939697 -11.20462891 29.41879395 -11.82519531 29.11938477 C-14.67640148 27.65185218 -17.15971592 25.82539223 -19.75 23.9375 C-20.73484375 23.22464844 -21.7196875 22.51179688 -22.734375 21.77734375 C-23.48203125 21.19082031 -24.2296875 20.60429687 -25 20 C-25 19.67 -25 19.34 -25 19 C-18.73 18.67 -12.46 18.34 -6 18 C-4.02 12.06 -2.04 6.12 0 0 Z " fill="#F9CB05" transform="translate(556,324)"/>
<path d="M0 0 C2.26665457 3.39998185 3.3886974 6.83953891 4.625 10.6875 C5.40875 13.100625 6.1925 15.51375 7 18 C12.94 18.33 18.88 18.66 25 19 C21.82270675 22.17729325 19.21605594 24.74084058 15.6875 27.3125 C14.99011719 27.82425781 14.29273438 28.33601563 13.57421875 28.86328125 C13.05472656 29.23839844 12.53523438 29.61351562 12 30 C12.58613832 34.57187892 13.83963657 38.5715268 15.4765625 42.8515625 C16 45 16 45 15 49 C10.38 45.7 5.76 42.4 1 39 C-2.76904401 40.884522 -5.92822223 43.08201223 -9.25 45.625 C-10.08144531 46.25535156 -10.08144531 46.25535156 -10.9296875 46.8984375 C-12.28866663 47.92938719 -13.64463835 48.96429911 -15 50 C-16 48 -16 48 -15.00390625 44.62890625 C-14.5307872 43.27085466 -14.04997468 41.91546496 -13.5625 40.5625 C-11.64520717 35.41656146 -11.64520717 35.41656146 -11 30 C-13.30006231 28.16347065 -15.5626919 26.50771411 -18 24.875 C-20.35164588 23.27243051 -22.68111426 21.65043143 -25 20 C-25 19.67 -25 19.34 -25 19 C-18.73 18.67 -12.46 18.34 -6 18 C-4.39597014 12.45134384 -4.39597014 12.45134384 -2.79907227 6.90063477 C-1.11111111 1.11111111 -1.11111111 1.11111111 0 0 Z " fill="#F8CB05" transform="translate(327,386)"/>
<path d="M0 0 C2 1 2 1 2.81640625 3.29296875 C3.06261719 4.24816406 3.30882812 5.20335937 3.5625 6.1875 C3.81128906 7.12980469 4.06007813 8.07210938 4.31640625 9.04296875 C5.00066301 12.00286798 5.50056219 15.00337313 6 18 C12.27 18 18.54 18 25 18 C21.88946842 21.11053158 19.2506787 23.73885366 15.8125 26.3125 C15.13832031 26.82425781 14.46414063 27.33601563 13.76953125 27.86328125 C12 29 12 29 10 29 C10.433125 29.969375 10.86625 30.93875 11.3125 31.9375 C16 42.89732143 16 42.89732143 16 48 C12.41486894 46.37815499 9.41007677 44.20743761 6.25 41.875 C5.26515625 41.15054688 4.2803125 40.42609375 3.265625 39.6796875 C2.14414062 38.84824219 2.14414062 38.84824219 1 38 C-3.6502799 40.09372792 -7.48653444 43.2673356 -11.5390625 46.3203125 C-14 48 -14 48 -16 48 C-15.31462073 44.13760226 -14.25516907 40.5272467 -13 36.8125 C-12.649375 35.76707031 -12.29875 34.72164063 -11.9375 33.64453125 C-11 31 -11 31 -10 29 C-10.54140625 28.75378906 -11.0828125 28.50757813 -11.640625 28.25390625 C-14.53939263 26.71333603 -17.09760026 24.87066436 -19.75 22.9375 C-20.73484375 22.22464844 -21.7196875 21.51179688 -22.734375 20.77734375 C-23.48203125 20.19082031 -24.2296875 19.60429687 -25 19 C-25 18.67 -25 18.34 -25 18 C-18.73 18 -12.46 18 -6 18 C-5.566875 16.14375 -5.13375 14.2875 -4.6875 12.375 C-3.56704545 7.86116881 -2.33820599 4.00835313 0 0 Z " fill="#F8CB05" transform="translate(495,387)"/>
<path d="M0 0 C9.9 0 19.8 0 30 0 C30 9.24 30 18.48 30 28 C20.1 28 10.2 28 0 28 C0 18.76 0 9.52 0 0 Z " fill="#505460" transform="translate(1205,304)"/>
<path d="M0 0 C0.99 0.495 0.99 0.495 2 1 C2.31241371 3.54941373 2.51303421 6.00361513 2.625 8.5625 C2.66367188 9.27341797 2.70234375 9.98433594 2.7421875 10.71679688 C2.83671783 12.47742425 2.91945817 14.23867728 3 16 C2.01 16.33 1.02 16.66 0 17 C0 11.39 0 5.78 0 0 Z " fill="#454F69" transform="translate(1803,112)"/>
<path d="M0 0 C3.3 0 6.6 0 10 0 C8.68 0.33 7.36 0.66 6 1 C5.67 1.99 5.34 2.98 5 4 C3.31503702 3.03114628 1.64821244 2.03013277 0 1 C0 0.67 0 0.34 0 0 Z " fill="#E9C30E" transform="translate(469,112)"/>
<path d="M0 0 C2.12508244 3.18762365 2.5020163 5.26512223 3 9 C1.68 8.34 0.36 7.68 -1 7 C-0.67 4.69 -0.34 2.38 0 0 Z " fill="#D4B81C" transform="translate(279,196)"/>
</svg>
