<?xml version="1.0" standalone="no"?>
<!DOCTYPE svg PUBLIC "-//W3C//DTD SVG 20010904//EN"
 "http://www.w3.org/TR/2001/REC-SVG-20010904/DTD/svg10.dtd">
<svg version="1.0" xmlns="http://www.w3.org/2000/svg"
 width="1969.000000pt" height="502.000000pt" viewBox="0 0 1969.000000 502.000000"
 preserveAspectRatio="xMidYMid meet">

<g transform="translate(0.000000,502.000000) scale(0.100000,-0.100000)"
fill="#000000" stroke="none">
<path d="M9345 4719 c-450 -20 -683 -31 -710 -34 -16 -1 -108 -7 -203 -14 -96
-6 -178 -14 -183 -17 -5 -3 -69 -9 -141 -14 -138 -9 -254 -21 -443 -45 -60 -8
-126 -16 -145 -19 -156 -17 -536 -77 -651 -102 -37 -8 -77 -14 -90 -14 -13 0
-53 -6 -89 -15 -36 -8 -90 -19 -120 -24 -75 -14 -205 -40 -260 -53 -25 -6 -72
-16 -105 -23 -97 -21 -277 -65 -370 -90 -33 -8 -85 -22 -115 -29 -30 -8 -80
-21 -110 -30 -30 -10 -71 -21 -90 -26 -111 -28 -448 -137 -518 -166 -18 -8
-41 -14 -52 -14 -10 0 -21 -4 -25 -9 -3 -5 -20 -13 -38 -17 -30 -6 -43 -11
-129 -48 -20 -9 -41 -16 -46 -16 -6 0 -23 -6 -39 -14 -15 -8 -48 -22 -73 -31
-41 -16 -93 -38 -130 -55 -8 -4 -55 -24 -104 -45 -121 -52 -408 -199 -528
-270 -88 -52 -168 -102 -193 -120 -354 -253 -581 -486 -674 -690 -75 -165 -84
-202 -84 -345 0 -133 20 -219 74 -320 39 -72 52 -96 58 -100 3 -3 18 -23 32
-45 37 -56 199 -216 291 -286 42 -33 80 -59 83 -59 4 0 24 -13 45 -30 21 -16
40 -30 43 -30 3 0 38 -19 79 -43 40 -24 93 -53 118 -66 25 -12 52 -26 60 -31
90 -51 534 -232 665 -270 105 -31 133 -40 160 -49 17 -6 77 -24 135 -41 58
-17 126 -37 151 -45 26 -8 57 -15 70 -15 13 -1 35 -7 49 -15 14 -8 35 -14 48
-15 13 0 44 -6 70 -14 26 -7 81 -21 122 -31 41 -9 102 -23 135 -30 76 -18 177
-39 280 -60 44 -9 103 -23 131 -31 28 -8 68 -14 88 -14 21 0 46 -5 56 -10 21
-11 131 -30 223 -37 47 -4 57 -2 57 11 0 21 -33 37 -110 52 -90 17 -159 33
-200 46 -19 7 -53 15 -75 19 -94 19 -231 56 -410 111 -191 58 -230 71 -239 80
-6 4 -18 8 -28 8 -9 0 -32 6 -50 14 -18 8 -51 21 -73 29 -80 30 -272 110 -330
138 -33 16 -65 29 -71 29 -7 0 -17 7 -24 15 -7 8 -18 15 -25 15 -11 0 -47 18
-235 123 -129 71 -314 211 -421 317 -75 74 -189 221 -189 244 0 8 -4 16 -8 18
-13 5 -52 87 -52 109 0 11 -6 30 -14 42 -40 65 -38 399 3 440 6 6 11 20 11 32
0 11 6 29 14 40 7 11 16 32 20 48 3 15 11 27 16 27 6 0 10 8 10 19 0 10 7 24
15 31 8 7 15 17 15 22 0 11 84 121 136 178 72 80 93 100 175 171 95 82 205
169 214 169 3 0 31 17 63 39 71 48 162 105 182 114 8 4 31 17 50 28 75 46 451
229 470 229 5 0 21 6 37 14 51 25 119 53 228 93 22 8 54 21 70 28 17 7 45 16
62 19 18 4 35 12 38 17 4 5 15 9 25 9 11 0 34 6 52 14 53 22 110 40 233 75 29
9 153 44 260 75 28 8 79 22 115 31 36 9 88 23 115 30 28 7 73 18 100 25 28 7
70 16 95 19 25 4 50 10 57 14 6 4 37 11 70 17 83 14 195 36 218 43 11 4 49 11
85 17 36 6 99 16 140 24 41 8 109 19 150 26 41 6 110 18 153 26 42 8 92 14
109 14 18 0 57 4 87 10 176 31 556 72 931 100 74 6 162 13 195 16 89 7 181 12
365 19 91 3 253 10 360 15 250 12 747 12 1010 0 113 -5 284 -12 380 -15 188
-7 272 -11 390 -19 41 -3 138 -10 215 -16 377 -27 665 -53 935 -85 74 -8 182
-20 240 -25 58 -6 121 -15 140 -20 19 -6 53 -10 76 -10 22 0 81 -6 130 -14 49
-8 141 -22 204 -31 146 -20 298 -43 375 -57 33 -5 88 -14 123 -19 35 -4 80
-13 100 -19 20 -5 56 -10 79 -10 23 0 54 -5 70 -11 15 -6 55 -15 88 -19 33 -5
87 -14 120 -20 33 -7 92 -18 130 -25 117 -23 236 -46 310 -61 39 -8 104 -21
145 -30 41 -8 95 -20 120 -26 25 -6 65 -14 90 -18 25 -4 63 -12 85 -18 22 -6
76 -18 120 -27 44 -9 102 -23 129 -31 26 -8 57 -14 68 -14 10 0 40 -6 66 -14
26 -7 83 -22 127 -31 44 -10 103 -23 130 -31 28 -7 79 -20 115 -29 36 -9 85
-23 110 -31 25 -8 56 -14 70 -14 14 -1 36 -7 50 -15 14 -8 36 -14 51 -15 14 0
29 -4 35 -9 11 -11 92 -31 152 -38 53 -6 58 16 10 40 -33 16 -188 72 -243 87
-16 5 -43 13 -60 19 -40 15 -446 146 -515 167 -30 9 -66 21 -80 26 -28 11
-106 34 -160 48 -19 4 -48 13 -65 18 -16 6 -55 18 -85 26 -30 9 -77 22 -105
30 -27 7 -77 21 -110 30 -33 10 -82 23 -110 31 -27 8 -79 21 -115 31 -36 9
-85 23 -109 30 -25 8 -53 14 -64 14 -11 0 -40 6 -66 14 -49 15 -120 33 -186
47 -22 4 -71 15 -110 24 -174 40 -294 66 -413 90 -277 56 -367 72 -460 85 -40
6 -84 15 -98 20 -14 6 -38 10 -54 10 -16 0 -65 6 -107 14 -108 20 -246 41
-388 61 -66 9 -149 21 -185 26 -36 6 -109 15 -162 20 -54 5 -117 13 -140 19
-24 5 -70 10 -103 10 -33 0 -100 7 -150 15 -49 8 -121 15 -160 15 -38 0 -97 5
-130 10 -51 9 -127 15 -425 35 -25 2 -155 8 -290 14 -135 6 -339 15 -455 21
-236 11 -699 11 -940 -1z"/>
<path d="M10105 3371 c-27 -4 -64 -16 -82 -25 -36 -19 -100 -97 -119 -146 -3
-8 -12 -28 -19 -45 -39 -91 -45 -107 -45 -124 0 -10 -7 -32 -15 -47 -8 -16
-15 -42 -15 -59 0 -16 -7 -39 -15 -49 -8 -11 -15 -34 -15 -50 0 -17 -7 -49
-15 -71 -8 -22 -14 -55 -15 -72 0 -39 -10 -41 -59 -10 -52 32 -166 31 -236 -2
-185 -89 -394 -288 -471 -451 -4 -8 -10 -17 -13 -20 -13 -11 -111 -222 -111
-238 0 -5 -7 -23 -15 -38 -8 -16 -15 -39 -15 -52 0 -13 -5 -33 -12 -45 -7 -13
-13 -75 -15 -147 -2 -123 3 -153 38 -210 5 -8 13 -24 18 -36 5 -11 35 -44 66
-71 49 -45 63 -51 113 -57 62 -7 147 5 165 23 6 6 17 11 24 11 39 0 266 167
375 275 83 82 105 93 93 43 -3 -13 1 -45 10 -73 8 -27 15 -64 15 -81 0 -16 7
-39 15 -50 8 -10 15 -25 15 -32 0 -21 51 -82 81 -98 36 -18 96 -18 133 1 15 8
35 15 43 15 15 0 117 53 206 107 53 33 57 39 57 72 0 20 -7 45 -15 55 -8 11
-15 36 -15 57 0 20 -7 53 -15 72 -8 20 -15 51 -15 69 0 18 -8 56 -17 83 -24
74 -24 660 0 753 10 35 17 83 17 106 0 24 7 65 15 92 8 27 15 66 15 87 0 21 7
54 15 74 8 19 15 50 15 67 0 18 4 36 10 42 5 5 14 30 19 54 17 77 40 152 52
166 14 17 3 51 -20 64 -25 13 -166 20 -226 11z m-550 -943 c28 -63 37 -113 42
-218 3 -70 0 -108 -12 -146 -9 -29 -15 -63 -13 -76 4 -31 43 -36 80 -8 28 21
48 20 48 -3 0 -14 -85 -98 -145 -144 -76 -58 -132 -75 -180 -57 -58 23 -61
171 -8 379 38 149 121 315 158 315 6 0 20 -19 30 -42z"/>
<path d="M10820 3233 c-28 -25 -56 -56 -61 -67 -5 -12 -13 -28 -17 -36 -27
-48 -42 -84 -42 -100 0 -9 -7 -34 -15 -53 -24 -57 -20 -140 9 -186 28 -44 82
-81 117 -80 71 2 171 83 210 168 11 25 27 60 35 76 10 21 15 65 16 140 l0 110
-42 37 c-39 35 -48 38 -100 38 -55 0 -61 -3 -110 -47z"/>
<path d="M6045 3204 c-160 -26 -259 -63 -291 -111 -27 -40 -54 -102 -54 -124
0 -10 13 -33 28 -51 32 -35 57 -39 149 -24 l53 8 -30 -74 c-17 -40 -34 -80
-39 -88 -5 -9 -12 -30 -15 -48 -4 -17 -12 -34 -17 -37 -5 -4 -9 -16 -9 -29 0
-12 -7 -31 -15 -42 -8 -10 -15 -28 -15 -40 0 -11 -7 -29 -15 -40 -8 -10 -15
-28 -15 -40 0 -11 -7 -29 -15 -40 -8 -10 -15 -30 -15 -42 0 -13 -6 -36 -14
-50 -16 -31 -35 -84 -45 -127 -4 -17 -13 -40 -19 -52 -7 -12 -12 -32 -12 -45
0 -13 -6 -32 -14 -43 -7 -11 -16 -33 -18 -50 -3 -16 -11 -46 -18 -65 -29 -84
-33 -97 -37 -125 -3 -16 -11 -44 -19 -62 -8 -17 -14 -43 -14 -58 0 -14 -7 -40
-16 -56 -10 -20 -16 -62 -17 -129 -2 -92 0 -100 23 -125 31 -33 72 -55 102
-55 27 0 138 37 153 51 5 5 15 9 21 9 21 0 131 78 161 114 15 19 43 66 61 103
19 37 40 81 48 96 8 16 14 41 14 57 0 15 7 33 15 40 8 7 15 27 15 45 0 18 7
38 15 45 8 7 15 27 15 44 1 17 7 42 15 56 8 14 14 38 15 54 0 31 25 116 46
158 8 14 14 37 14 50 1 12 7 34 15 48 8 14 14 39 15 55 0 17 5 36 12 43 6 6
15 30 19 54 13 69 33 146 42 154 4 4 7 15 7 25 0 9 7 41 16 70 16 58 35 127
54 197 9 33 15 42 33 42 42 0 126 -58 157 -108 28 -45 30 -52 30 -162 0 -83
-4 -123 -15 -144 -8 -15 -15 -35 -15 -42 0 -17 -24 -62 -69 -129 -50 -75 -163
-161 -235 -179 -14 -3 -38 -18 -55 -32 -29 -24 -31 -31 -31 -89 0 -43 5 -66
15 -75 8 -7 15 -25 15 -40 0 -15 7 -33 15 -40 8 -7 15 -23 15 -35 0 -12 7 -28
15 -35 8 -7 15 -18 15 -25 0 -6 11 -32 24 -56 14 -24 35 -64 48 -89 13 -25 26
-46 30 -48 4 -2 16 -20 25 -40 28 -59 150 -173 223 -209 113 -55 137 -63 187
-63 51 0 126 32 171 74 24 21 102 131 102 142 0 3 6 20 13 37 23 54 47 134 47
154 0 19 -28 53 -44 53 -5 0 -24 7 -44 16 -150 64 -287 156 -350 233 -41 51
-42 54 -26 72 9 10 27 19 38 19 12 1 39 12 61 25 22 14 50 29 63 35 12 5 57
45 100 87 79 80 120 147 156 259 20 65 22 210 2 256 -56 130 -45 113 -133 207
-58 62 -186 151 -218 151 -7 0 -16 4 -19 9 -7 11 -119 45 -213 66 -91 19 -362
19 -488 -1z"/>
<path d="M8135 2691 c-162 -23 -361 -138 -531 -305 -97 -97 -214 -241 -214
-264 0 -6 -6 -17 -12 -24 -18 -18 -76 -137 -84 -171 -3 -15 -10 -30 -15 -33
-5 -3 -9 -15 -9 -27 0 -12 -7 -35 -15 -51 -17 -32 -21 -234 -6 -264 5 -9 19
-36 30 -60 92 -189 324 -260 502 -153 19 12 41 24 49 28 8 3 17 9 20 13 3 3
28 24 55 46 104 82 205 177 205 194 0 5 8 14 18 19 10 5 24 21 32 35 7 14 17
26 21 26 4 0 10 -30 13 -67 10 -127 18 -172 32 -184 8 -6 14 -16 14 -21 0 -18
52 -78 85 -98 41 -25 179 -29 211 -5 10 8 24 15 31 15 18 0 125 75 161 113 32
33 33 35 19 68 -8 19 -20 57 -27 84 -18 67 -25 393 -11 494 12 92 3 131 -36
156 -13 9 -27 14 -30 11 -4 -3 -12 -1 -20 6 -11 9 -11 13 0 27 17 20 37 89 37
128 0 52 -21 97 -71 148 -46 48 -69 63 -150 98 -41 18 -228 29 -304 18z m19
-294 c16 -79 -6 -172 -64 -266 -53 -85 -36 -116 57 -109 32 3 66 9 76 13 46
19 6 -29 -104 -125 -134 -117 -215 -172 -255 -172 -38 0 -72 39 -83 97 -21
109 10 218 111 397 29 51 128 176 168 212 l43 39 23 -28 c12 -15 25 -41 28
-58z"/>
<path d="M12020 2691 c-113 -16 -260 -89 -420 -209 -48 -35 -200 -182 -200
-192 0 -3 -18 -26 -40 -50 -22 -25 -40 -49 -40 -53 0 -5 -11 -23 -24 -40 -32
-44 -96 -163 -96 -180 0 -8 -7 -20 -15 -27 -8 -7 -15 -24 -15 -39 0 -15 -4
-31 -9 -36 -29 -30 -44 -219 -24 -300 20 -82 100 -187 177 -232 80 -47 194
-58 282 -28 92 31 231 134 362 269 67 69 125 126 127 126 3 0 5 -42 5 -94 0
-68 5 -104 17 -128 9 -18 23 -46 32 -63 8 -16 33 -46 55 -67 40 -37 42 -38
122 -38 72 0 90 4 145 31 35 18 90 54 122 81 48 42 57 55 57 83 0 18 -6 38
-14 44 -9 8 -16 40 -20 89 -3 42 -8 120 -12 172 -3 52 -1 161 6 243 13 168 9
186 -56 213 -39 17 -39 16 -14 69 36 76 19 169 -45 243 -25 30 -96 72 -158 94
-55 19 -226 30 -307 19z m-3 -233 c5 -7 15 -37 22 -67 20 -80 -1 -163 -73
-285 -42 -72 -15 -93 102 -82 l67 6 -75 -73 c-87 -84 -201 -177 -247 -200 -18
-10 -45 -17 -61 -17 -72 0 -118 148 -77 247 8 19 15 44 15 53 0 10 7 31 14 47
8 15 18 35 21 43 3 8 11 24 18 35 7 11 25 43 41 70 31 53 137 188 171 217 24
21 49 23 62 6z"/>
<path d="M10768 2665 c-42 -22 -74 -55 -104 -110 -38 -67 -84 -164 -84 -177 0
-9 -7 -21 -15 -28 -8 -7 -15 -23 -15 -35 0 -13 -7 -36 -15 -51 -8 -16 -15 -37
-15 -47 0 -10 -5 -28 -12 -40 -6 -12 -15 -40 -19 -62 -4 -22 -12 -58 -18 -80
-28 -111 -35 -174 -38 -327 -4 -140 -2 -171 11 -190 9 -12 16 -28 16 -36 0
-26 94 -142 115 -142 7 0 18 -7 25 -15 18 -21 98 -19 132 3 37 24 96 101 104
134 3 15 10 30 15 33 5 4 9 19 9 34 0 15 7 36 15 47 8 10 15 30 15 44 0 14 7
36 15 50 8 14 14 36 15 50 0 14 7 38 15 54 8 15 15 42 15 60 1 17 7 42 15 56
8 14 14 42 15 63 0 22 6 53 14 70 8 18 17 59 19 92 3 33 10 90 17 127 14 84 8
241 -11 290 -33 82 -121 159 -181 158 -13 -1 -44 -12 -70 -25z"/>
<path d="M13202 2670 c-57 -26 -87 -50 -125 -102 -41 -56 -51 -73 -77 -128
-12 -25 -28 -58 -35 -73 -8 -16 -15 -35 -15 -44 0 -8 -6 -27 -14 -41 -15 -30
-33 -81 -46 -127 -8 -29 -16 -55 -41 -127 -6 -18 -14 -51 -18 -73 -4 -22 -13
-50 -19 -62 -7 -12 -12 -40 -12 -63 0 -22 -7 -55 -16 -72 -12 -23 -16 -65 -17
-177 l-2 -146 37 -57 c46 -70 94 -98 171 -98 44 0 62 6 94 29 22 16 50 42 61
57 12 16 25 34 30 39 4 6 30 39 57 75 71 93 237 290 275 325 17 17 41 45 52
63 11 18 22 31 25 28 3 -3 4 -68 4 -145 -2 -113 1 -146 14 -163 8 -13 15 -31
15 -42 0 -55 86 -169 161 -214 43 -26 145 -30 187 -9 15 8 45 22 67 33 22 10
55 30 72 44 29 22 33 31 33 70 0 25 -6 57 -14 72 -8 14 -17 52 -20 85 -4 32
-10 78 -13 103 -8 57 -8 174 0 265 20 219 23 297 17 355 -16 135 -74 187 -203
178 -114 -7 -196 -66 -388 -279 -37 -41 -78 -87 -93 -104 -20 -24 -25 -26 -26
-12 0 10 5 28 12 40 7 12 15 47 19 77 4 30 12 89 19 130 23 142 -6 238 -86
285 -51 30 -85 31 -142 5z"/>
<path d="M6171 2064 c0 -11 3 -14 6 -6 3 7 2 16 -1 19 -3 4 -6 -2 -5 -13z"/>
</g>
</svg>
