<?xml version="1.0" encoding="UTF-8"?>
<svg version="1.1" xmlns="http://www.w3.org/2000/svg" width="486" height="90">
<path d="M0 0 C1.93842773 0.00966797 1.93842773 0.00966797 3.91601562 0.01953125 C5.27083605 0.03623923 6.62565376 0.05316908 7.98046875 0.0703125 C9.35481126 0.08035247 10.72916078 0.08947654 12.10351562 0.09765625 C15.45851192 0.12120008 18.81315074 0.15408683 22.16796875 0.1953125 C20.01094298 7.6585182 17.55813359 14.99284572 14.98046875 22.3203125 C14.61244141 23.3721875 14.24441406 24.4240625 13.86523438 25.5078125 C12.96811754 28.07100345 12.06832374 30.6332572 11.16796875 33.1953125 C18.09796875 34.6803125 18.09796875 34.6803125 25.16796875 36.1953125 C24.24216962 39.89850903 23.50455845 41.44369215 21.359375 44.43359375 C20.7813916 45.24731445 20.2034082 46.06103516 19.60791016 46.89941406 C18.98835449 47.76018555 18.36879883 48.62095703 17.73046875 49.5078125 C16.45696606 51.29981037 15.18484327 53.09278963 13.9140625 54.88671875 C13.28226074 55.77762207 12.65045898 56.66852539 11.99951172 57.58642578 C9.36956746 61.33257139 6.8199938 65.12922812 4.29296875 68.9453125 C3.87088135 69.58251221 3.44879395 70.21971191 3.01391602 70.8762207 C2.0632675 72.31459851 1.11526454 73.75472443 0.16796875 75.1953125 C11.46667012 74.30006021 22.52012943 72.61989706 30.66796875 63.8828125 C36.61506914 55.98843145 39.16645182 46.97497541 38.16796875 37.1953125 C35.73878867 27.89394422 31.82213223 21.01913254 24.16796875 15.1953125 C23.50796875 14.8653125 22.84796875 14.5353125 22.16796875 14.1953125 C23.16796875 6.76674107 23.16796875 6.76674107 24.16796875 3.1953125 C32.76285986 5.59388676 38.88725329 11.68485643 43.60546875 19.1328125 C49.3270305 29.70068292 50.95720155 40.6231689 48.4765625 52.5078125 C45.23914386 63.12762931 39.01273849 73.14813257 29.30078125 78.890625 C20.34619432 83.51306763 13.00262225 85.48986514 2.98046875 85.1953125 C1.21639587 85.14414287 -0.54797198 85.10212968 -2.3125 85.0703125 C-3.08489014 85.04710938 -3.85728027 85.02390625 -4.65307617 85 C-7.1162734 85.22079079 -8.70538369 85.96678433 -10.83203125 87.1953125 C-10.18765164 82.75381637 -9.13745115 78.6182318 -7.80078125 74.3359375 C-7.60480347 73.70548523 -7.40882568 73.07503296 -7.20690918 72.42547607 C-6.79523665 71.10387037 -6.38167628 69.78285136 -5.96630859 68.46240234 C-5.32989701 66.43852534 -4.69963943 64.41280864 -4.0703125 62.38671875 C-0.98428585 52.49982169 -0.98428585 52.49982169 0.16796875 50.1953125 C-5.11203125 50.1953125 -10.39203125 50.1953125 -15.83203125 50.1953125 C-11.41427962 41.35980923 -5.58496368 33.31706821 0.02441406 25.20605469 C4.14338902 19.24881232 8.17423804 13.23740366 12.16796875 7.1953125 C11.636875 7.50726562 11.10578125 7.81921875 10.55859375 8.140625 C7.65846975 9.42009147 5.06400433 9.70501453 1.91796875 10.0703125 C-3.72334818 10.88523958 -8.05965213 12.09052333 -12.83203125 15.1953125 C-13.86328125 15.8553125 -14.89453125 16.5153125 -15.95703125 17.1953125 C-21.65868642 22.17840291 -25.41405006 31.16346205 -26.03515625 38.640625 C-26.21783809 49.08393684 -24.1281565 57.46281612 -16.83203125 65.1953125 C-15.70038857 66.04781665 -14.55523529 66.88281967 -13.39453125 67.6953125 C-10.83203125 70.1953125 -10.83203125 70.1953125 -10.64453125 72.20703125 C-10.97257065 75.06199913 -11.54308476 77.61741953 -12.83203125 80.1953125 C-21.53935961 78.07157388 -26.46599158 72.04963861 -31.2578125 64.82421875 C-37.5353803 54.34083629 -39.312811 42.88009045 -36.6796875 30.8828125 C-32.90122677 18.90317663 -25.06237257 9.5310957 -14.2265625 3.38671875 C-9.25155023 0.91138638 -5.62178542 -0.04953115 0 0 Z " fill="#FFFFFF" transform="translate(333.83203125,2.8046875)"/>
<path d="M0 0 C9.36008322 6.68577373 15.90082563 16.38295908 17.96484375 27.78515625 C19.45025041 40.62476728 17.68367618 52.67338384 9.85546875 63.265625 C9.32566406 63.92046875 8.79585938 64.5753125 8.25 65.25 C7.77175781 65.86359375 7.29351562 66.4771875 6.80078125 67.109375 C-0.11422513 74.98237974 -10.63997905 79.32874995 -20.84765625 80.48828125 C-31.42341195 80.88776308 -41.0132433 77.05571956 -49.2421875 70.578125 C-59.14780812 61.3822529 -64.07920763 49.97648943 -65 36.625 C-64.80542897 23.92924024 -59.67460504 13.63724285 -51.17578125 4.58203125 C-36.57317495 -9.45622312 -17.11461905 -10.54537133 0 0 Z M-46.359375 17.22265625 C-52.37004835 25.98540757 -53.06661574 35.49137151 -51.3125 45.828125 C-49.1033206 53.72594134 -44.11809593 60.21563944 -37 64.25 C-29.45551845 68.04862008 -21.03382877 68.77390749 -12.8515625 66.4140625 C-4.52374626 62.59607905 1.17143339 56.14045628 4.52734375 47.65625 C7.42456711 38.00927926 6.37608191 28.76183835 2.02734375 19.703125 C-2.15547019 12.75895478 -7.82005931 8.76681922 -15.3125 5.875 C-27.59136231 3.64247958 -38.43321387 7.35667148 -46.359375 17.22265625 Z " fill="#FFFFFF" transform="translate(234.75,9.75)"/>
<path d="M0 0 C3.96 0 7.92 0 12 0 C18.48785711 11.24897189 24.54136991 22.69929525 30.49609375 34.23828125 C34.94488728 42.85299705 39.47637731 51.42441237 44 60 C43.99777939 59.26306412 43.99555878 58.52612823 43.99327087 57.76686096 C43.97326797 50.83587231 43.95802587 43.90488796 43.94818783 36.97387791 C43.94296005 33.41022578 43.93586431 29.84659743 43.92456055 26.28295898 C43.91165824 22.18993903 43.90677094 18.0969442 43.90234375 14.00390625 C43.89718246 12.71851456 43.89202118 11.43312286 43.88670349 10.10877991 C43.88662796 8.92763107 43.88655243 7.74648224 43.88647461 6.52954102 C43.884254 5.48363297 43.88203339 4.43772491 43.87974548 3.36012268 C44 1 44 1 45 0 C48.63 0 52.26 0 56 0 C56 27.72 56 55.44 56 84 C52.04 84 48.08 84 44 84 C41.4550782 81.12252309 40.46211639 79.41312185 39 76 C37.96577053 74.02404695 36.9220654 72.0530368 35.87109375 70.0859375 C34.72316276 67.85070104 33.57870983 65.61367543 32.4375 63.375 C26.18297478 51.11761092 19.59510608 39.09102781 13 27 C12.67 45.81 12.34 64.62 12 84 C8.04 84 4.08 84 0 84 C0 56.28 0 28.56 0 0 Z " fill="#FFFFFF" transform="translate(392,4)"/>
<path d="M0 0 C4.29 0 8.58 0 13 0 C13 12.21 13 24.42 13 37 C23.23 37 33.46 37 44 37 C44 24.79 44 12.58 44 0 C47.96 0 51.92 0 56 0 C56 27.72 56 55.44 56 84 C52.04 84 48.08 84 44 84 C44 72.12 44 60.24 44 48 C33.77 48 23.54 48 13 48 C13 59.88 13 71.76 13 84 C8.71 84 4.42 84 0 84 C0 56.28 0 28.56 0 0 Z " fill="#FFFFFF" transform="translate(101,4)"/>
<path d="M0 0 C37.76631579 0 37.76631579 0 46.234375 7.91796875 C50.79296992 13.29348002 52.69012671 19.85035518 52.3203125 26.83984375 C51.348811 33.3915551 48.76583244 38.34007495 44 43 C38.61269101 46.35901935 33.60200293 48.13847438 27.234375 48.09765625 C26.43225586 48.09515869 25.63013672 48.09266113 24.80371094 48.09008789 C23.79598633 48.08098389 22.78826172 48.07187988 21.75 48.0625 C18.5325 48.041875 15.315 48.02125 12 48 C12 59.88 12 71.76 12 84 C8.04 84 4.08 84 0 84 C0 56.28 0 28.56 0 0 Z M12 12 C12 19.92 12 27.84 12 36 C24.96047894 36.82524344 24.96047894 36.82524344 37 33 C39.55139963 30.12967542 39.95269697 28.37166669 40.4375 24.5625 C39.90073307 20.19168354 38.96346663 18.25981329 36 15 C28.53244331 10.69179421 20.37829494 11.79054263 12 12 Z " fill="#FFFFFF" transform="translate(38,4)"/>
<path d="M0 0 C12.54 0 25.08 0 38 0 C38 3.63 38 7.26 38 11 C37.67 11.33 37.34 11.66 37 12 C33.37 12 29.74 12 26 12 C25.67 35.76 25.34 59.52 25 84 C20.71 84 16.42 84 12 84 C12 60.57 12 37.14 12 13 C8.37 12.67 4.74 12.34 1 12 C0.67 11.67 0.34 11.34 0 11 C0 7.37 0 3.74 0 0 Z " fill="#FFFFFF" transform="translate(262,4)"/>
<path d="M0 0 C3.39944813 1.13314938 3.59569101 1.46546563 5.125 4.5 C7.22237538 8.91889776 7.77557509 13.15242197 8 18 C8.66 18 9.32 18 10 18 C9.88829631 24.2554066 8.54527939 27.62720445 4.234375 32.1875 C0.96497828 34.83959803 -2.59647673 36.27186388 -6.4765625 37.83984375 C-9.82597133 39.37974224 -11.57525288 41.27215949 -14 44 C-15.485 44.495 -15.485 44.495 -17 45 C-16.814375 44.4225 -16.62875 43.845 -16.4375 43.25 C-15.82930802 41.03680625 -15.82930802 41.03680625 -16.5625 39.0625 C-17.16452755 36.22437012 -16.21266333 34.56799293 -15 32 C-15.66 32 -16.32 32 -17 32 C-18.56473954 27.30578138 -18.88682761 23.01494753 -16.89453125 18.48828125 C-13.78378516 14.40262092 -9.38254581 12.57558507 -4.93359375 10.16015625 C-1.51741576 7.64464836 -0.85142369 6.0901726 0 2 C0 1.34 0 0.68 0 0 Z M7 18 C8 22 8 22 8 22 Z M6 22 C5.67 23.32 5.34 24.64 5 26 C5.66 25.67 6.32 25.34 7 25 C6.67 24.01 6.34 23.02 6 22 Z M-12 25 C-11 27 -11 27 -11 27 Z M-15 38 C-14 40 -14 40 -14 40 Z " fill="#FFFFFF" transform="translate(218,22)"/>
</svg>
